<?xml version="1.0" standalone="no"?>
<!DOCTYPE svg PUBLIC "-//W3C//DTD SVG 20010904//EN"
 "http://www.w3.org/TR/2001/REC-SVG-20010904/DTD/svg10.dtd">
<svg version="1.0" xmlns="http://www.w3.org/2000/svg"
 width="3000.000000pt" height="1924.000000pt" viewBox="0 0 3000.000000 1924.000000"
 preserveAspectRatio="xMidYMid meet">
<metadata>
Created by potrace 1.16, written by Peter Selinger 2001-2019
</metadata>
<g transform="translate(0.000000,1924.000000) scale(0.100000,-0.100000)"
fill="#260909" stroke="none">
<path d="M12960 15370 c-1531 -13 -2655 -29 -2800 -40 -336 -26 -783 -86
-1020 -136 -343 -72 -600 -213 -752 -413 -72 -96 -142 -246 -178 -386 -34
-131 -82 -287 -100 -326 -10 -21 -6 -39 24 -115 73 -182 343 -692 563 -1064
24 -41 94 -175 154 -297 100 -202 129 -252 129 -225 0 5 -18 44 -40 87 -23 42
-39 82 -36 89 2 6 8 1 11 -11 4 -13 11 -23 16 -23 5 0 9 -12 9 -26 0 -14 4
-23 10 -19 5 3 30 -37 56 -90 44 -91 64 -120 64 -94 0 6 -9 28 -19 48 -11 20
-29 63 -41 96 -11 33 -24 69 -29 80 -5 11 -19 45 -32 75 -12 30 -33 70 -46 88
-13 17 -29 47 -35 65 -6 17 -17 39 -24 48 -16 18 -14 79 3 96 9 10 16 8 31
-12 11 -14 24 -25 29 -25 16 0 89 -78 125 -134 12 -18 20 1 9 22 -7 12 -7 22
0 29 6 6 6 25 0 54 -9 40 -14 105 -12 137 1 15 47 16 57 1 12 -20 75 -41 89
-29 18 15 37 -10 89 -113 14 -28 26 -43 29 -35 3 7 6 4 6 -8 1 -11 10 -29 20
-38 19 -17 19 -17 14 5 -9 35 15 14 33 -29 10 -22 18 -32 21 -24 3 8 1 24 -5
35 -24 47 -39 93 -35 105 6 16 23 16 23 -1 0 -7 9 -19 20 -27 11 -8 20 -21 21
-30 0 -10 3 -8 9 6 4 11 4 44 -2 75 -14 73 -4 211 20 279 85 243 259 377 514
397 43 3 81 9 83 13 3 4 -9 14 -27 21 -27 11 -29 14 -12 20 15 6 13 8 -11 9
-16 1 -39 5 -49 9 -37 14 64 29 174 26 104 -4 269 -29 302 -46 10 -5 39 -9 65
-9 47 0 155 -27 278 -68 33 -12 56 -21 50 -22 -5 0 0 -6 12 -13 12 -7 22 -16
23 -22 2 -16 214 -85 238 -77 7 2 19 -2 27 -8 12 -10 15 -10 15 0 0 9 10 11
38 5 20 -4 47 -7 60 -7 16 0 22 -4 18 -14 -4 -11 -2 -13 10 -6 16 9 72 -4 84
-19 3 -4 34 -19 69 -34 50 -21 76 -26 115 -22 42 3 61 -1 116 -28 130 -65 152
-73 168 -68 9 4 13 2 9 -4 -4 -6 2 -13 13 -16 13 -3 18 -1 13 6 -4 7 0 8 11 4
10 -4 21 -7 24 -7 4 0 0 -5 -8 -10 -13 -8 -12 -10 3 -10 17 0 25 -3 84 -34 17
-9 39 -16 50 -17 11 0 13 -2 5 -6 -11 -4 -114 23 -382 102 -153 45 -278 89
-295 105 -29 27 -69 40 -118 39 -23 -1 -107 15 -186 35 -79 20 -146 35 -147
33 -2 -2 56 -21 128 -42 73 -21 331 -106 573 -188 242 -82 584 -197 760 -257
331 -112 632 -206 865 -269 124 -34 135 -39 137 -62 9 -83 26 -187 33 -200 8
-12 69 -14 377 -14 l368 0 -1 -30 c0 -16 -4 -52 -7 -80 -6 -39 -3 -33 12 25
11 42 19 82 19 90 -3 50 3 70 21 70 26 0 28 -33 27 -680 -1 -541 -2 -566 -20
-597 -18 -29 -19 -38 -8 -95 7 -35 16 -83 21 -108 7 -40 8 -83 1 -235 l-2 -40
-15 35 c-9 21 -18 84 -23 155 -7 116 -7 112 -10 -97 -2 -120 -3 -224 -4 -230
-1 -7 -10 -17 -21 -23 -12 -6 -334 -12 -830 -15 l-810 -6 -89 -28 c-210 -65
-368 -201 -461 -399 -51 -108 -56 -137 -22 -138 18 -1 17 -2 -8 -10 -42 -13
-117 -30 -135 -31 -8 0 -24 1 -35 1 -67 4 -432 -10 -490 -19 -38 -5 -179 -11
-312 -14 l-241 -5 -6 60 c-3 32 -9 86 -12 119 -5 47 -3 60 8 60 7 0 19 9 26
20 7 11 19 20 26 20 8 0 16 4 18 8 9 23 177 116 246 137 25 7 27 16 10 33 -19
19 -41 14 -72 -14 -26 -25 -33 -26 -92 -21 -38 4 -64 2 -64 -3 0 -15 -37 -12
-44 3 -5 10 -7 10 -12 0 -3 -7 -22 -13 -43 -13 l-37 0 -12 58 c-15 73 -16 93
-2 72 8 -12 10 -12 10 5 0 17 2 17 10 5 8 -13 10 -13 10 1 0 15 19 16 198 13
207 -4 247 -8 272 -29 8 -7 56 -15 107 -18 51 -3 100 -10 110 -16 16 -9 16
-10 -4 -11 -12 0 -25 -4 -28 -10 -3 -5 -15 -10 -25 -10 -14 0 -20 -7 -19 -22
0 -13 -2 -41 -5 -63 -7 -55 3 -105 21 -105 10 0 12 -6 7 -22 -3 -13 -11 -24
-15 -26 -5 -2 -9 -17 -9 -32 0 -16 -4 -31 -9 -35 -5 -3 -12 -19 -16 -35 l-7
-30 -106 0 c-108 -1 -328 -23 -339 -34 -4 -3 2 -7 13 -7 10 -1 1 -5 -21 -9
-24 -5 -42 -4 -46 2 -4 7 -9 6 -13 -1 -4 -6 -4 -15 -1 -21 3 -5 2 -10 -4 -10
-5 0 -12 6 -14 13 -3 7 -6 5 -6 -5 -1 -22 -1 -22 189 1 85 10 247 22 360 25
113 4 234 11 270 16 36 5 104 10 151 10 109 0 180 10 177 24 -2 11 14 51 58
141 13 28 24 54 24 59 0 5 25 40 56 78 55 68 55 69 43 106 -6 20 -16 41 -21
47 -5 5 -2 -10 7 -34 8 -24 12 -47 9 -52 -7 -12 -44 8 -44 24 0 7 -16 46 -35
86 -39 80 -99 158 -148 193 -27 18 -24 14 14 -28 25 -28 58 -68 72 -90 28 -42
80 -165 73 -172 -9 -8 -26 9 -26 26 0 9 -9 31 -20 47 -11 17 -20 26 -20 21 0
-5 -13 9 -29 31 -16 23 -39 47 -50 55 -12 8 -18 18 -13 22 4 4 2 6 -4 4 -6 -2
-40 24 -76 58 l-65 61 41 -2 c22 -1 53 -2 68 -3 34 -2 153 -111 198 -183 32
-48 50 -67 31 -30 -24 43 -86 119 -139 168 l-57 52 163 1 c148 0 164 2 182 20
13 13 20 33 20 61 0 24 4 38 10 34 6 -3 10 -27 10 -53 0 -52 26 -104 61 -122
19 -11 26 -8 53 19 27 28 28 31 10 31 -11 0 -29 6 -40 14 -16 12 -20 31 -24
140 -7 145 -16 167 -91 203 -41 20 -68 22 -415 32 -277 9 -385 9 -425 0 -67
-14 -89 -25 -89 -45 0 -8 4 -13 9 -9 6 3 14 -2 18 -10 8 -14 13 -14 52 0 50
17 107 20 116 5 3 -5 -1 -10 -10 -10 -26 0 -59 -21 -46 -29 6 -4 -6 -7 -25 -7
-40 0 -64 -23 -64 -60 0 -13 -5 -34 -11 -47 -8 -18 -17 -23 -42 -20 l-32 2 33
-11 c27 -9 32 -16 32 -44 0 -30 3 -34 28 -35 104 -1 125 -5 142 -27 10 -12 23
-22 29 -22 7 0 11 -28 11 -76 l0 -76 -32 5 c-111 19 -230 28 -243 17 -16 -13
-115 -3 -115 13 0 6 -25 7 -72 3 -82 -8 -301 -8 -323 0 -8 3 -33 6 -57 7 l-42
2 -46 135 c-26 74 -64 176 -84 225 -50 120 -168 355 -178 355 -15 0 -58 44
-54 56 2 6 -5 26 -15 44 -11 18 -18 38 -15 45 2 7 -6 30 -20 51 -13 22 -24 35
-24 29 -1 -13 -39 66 -40 81 0 7 -7 14 -15 18 -8 3 -15 11 -15 18 -1 16 -49
52 -58 44 -5 -6 9 -36 57 -125 8 -14 19 -29 24 -33 13 -8 -9 -62 -21 -54 -5 3
-22 24 -38 48 -16 23 -37 50 -46 60 -16 16 -17 16 -11 -12 4 -23 2 -30 -11
-30 -23 0 -21 -5 27 -68 24 -31 56 -83 71 -115 15 -31 33 -63 39 -70 12 -12
33 -75 44 -129 4 -21 1 -28 -10 -28 -14 0 -32 42 -24 58 1 4 -16 27 -40 52
-38 40 -43 42 -43 23 0 -13 -6 -23 -12 -23 -17 0 -68 64 -68 86 0 9 -13 33
-30 54 -26 33 -28 39 -15 56 20 27 19 38 -10 72 -13 16 -46 69 -72 119 -49 91
-144 236 -163 248 -12 8 -73 102 -84 129 -7 20 -7 20 15 0 22 -19 22 -19 15 1
-5 11 -11 28 -13 38 -3 9 -9 17 -14 17 -5 0 -9 6 -9 13 0 8 -14 34 -31 57 -18
24 -43 68 -56 97 -14 30 -27 52 -30 49 -3 -3 11 -37 31 -76 20 -38 41 -95 46
-126 9 -54 66 -180 98 -217 11 -12 12 -21 5 -28 -10 -10 -56 39 -82 89 -12 23
-51 67 -51 57 0 -2 9 -19 20 -37 11 -18 20 -45 20 -59 0 -14 11 -47 24 -72 14
-25 22 -47 20 -50 -3 -3 4 -23 15 -46 12 -22 21 -47 21 -55 0 -20 49 -134 72
-168 18 -27 25 -98 9 -98 -5 0 -24 25 -42 55 -36 59 -49 68 -49 33 0 -20 -1
-21 -16 -6 -13 13 -14 19 -3 36 11 17 10 26 -3 54 -29 58 -77 172 -93 217 -8
24 -19 49 -24 55 -8 10 -91 164 -115 213 -6 13 -14 23 -18 23 -4 0 -16 17 -27
39 -11 21 -27 41 -36 44 -8 4 -15 17 -15 30 0 30 -24 62 -38 53 -17 -10 -15
-20 17 -121 29 -90 82 -205 109 -237 17 -20 48 -72 67 -115 8 -17 19 -34 25
-38 5 -3 10 -15 10 -25 0 -10 11 -27 24 -37 26 -21 69 -93 60 -102 -3 -3 -9 1
-14 9 -15 24 -24 2 -10 -25 7 -13 16 -41 19 -62 5 -29 11 -39 28 -41 18 -3 23
-14 33 -70 6 -37 23 -89 36 -117 14 -27 24 -60 21 -72 -2 -12 -1 -20 4 -17 4
2 17 -6 29 -18 18 -20 19 -23 5 -26 -9 -2 -33 5 -54 17 -22 11 -47 21 -57 23
-10 2 -29 12 -42 23 -13 11 -29 20 -35 20 -6 0 -32 56 -59 125 -91 237 -111
285 -125 300 -25 27 -14 -10 51 -175 66 -167 100 -275 86 -275 -4 0 -11 7 -14
16 -4 10 -13 13 -25 9 -11 -3 -22 -1 -26 5 -3 5 -15 10 -26 10 -11 0 -22 7
-26 16 -3 8 -15 14 -27 13 -41 -3 -57 1 -50 12 4 8 -5 9 -32 5 -24 -4 -85 1
-154 14 -63 11 -127 20 -142 20 -16 0 -28 4 -28 9 0 5 -12 12 -27 16 -33 8
-455 17 -858 18 -216 1 -260 2 -158 6 78 3 145 10 150 14 9 10 -359 2 -399 -8
-21 -6 -28 -4 -28 8 0 22 -328 33 -532 18 -84 -6 -189 -13 -233 -15 -44 -2
-93 -6 -110 -9 -16 -3 -101 -14 -187 -23 -115 -13 -158 -21 -158 -31 0 -9 -20
-13 -72 -13 -139 0 -434 -49 -541 -90 -29 -11 -60 -20 -70 -20 -9 0 -26 -4
-37 -10 -11 -5 -29 -14 -40 -20 -33 -17 -43 -11 -19 11 l24 20 -33 -18 c-19
-10 -39 -25 -45 -33 -10 -13 -10 -13 6 -1 15 11 17 11 17 -2 0 -13 -56 -54
-78 -58 -18 -2 -38 -30 -104 -143 -39 -67 -78 -129 -86 -138 -7 -9 -11 -22 -6
-29 4 -7 3 -10 -3 -6 -6 4 -15 -5 -22 -19 -6 -14 -7 -23 -1 -19 5 3 -3 -28
-18 -70 -15 -41 -30 -75 -34 -75 -3 0 2 23 13 52 36 99 11 57 -44 -74 -184
-440 -323 -1136 -382 -1923 -76 -1010 -30 -2015 131 -2836 50 -259 153 -575
237 -729 22 -41 60 -113 85 -160 24 -47 53 -98 65 -115 35 -52 101 -116 138
-135 21 -11 44 -26 53 -35 8 -9 46 -31 83 -50 63 -32 65 -34 40 -40 -43 -11
-212 -96 -322 -163 -55 -32 -126 -73 -157 -90 -107 -57 -123 -74 -133 -147 -2
-14 23 -56 50 -81 29 -29 178 -87 300 -118 116 -29 278 -53 402 -62 49 -3 171
-14 273 -24 194 -20 252 -24 650 -40 469 -19 540 -20 1380 -35 465 -8 877 -17
915 -20 39 -3 390 -7 780 -10 774 -6 973 -10 1140 -25 460 -42 671 -63 805
-81 85 -10 241 -31 345 -44 105 -14 267 -34 360 -45 94 -11 220 -27 280 -35
61 -8 151 -17 200 -20 50 -3 162 -12 250 -20 231 -20 1002 -65 1201 -70 604
-14 957 -16 1299 -6 416 12 903 35 1075 51 58 5 152 12 210 15 141 9 507 42
655 60 66 8 172 19 235 25 144 14 237 25 365 44 320 47 487 67 735 91 91 8
210 20 265 25 220 22 532 31 1460 41 534 5 997 11 1030 13 33 2 335 8 670 14
799 15 1504 41 1802 67 93 8 222 19 288 25 161 13 276 32 480 76 93 21 250 82
280 110 33 31 43 104 19 138 -28 37 -181 134 -334 209 -74 37 -157 80 -185 97
-27 16 -61 29 -74 30 -33 0 -22 9 54 41 79 33 181 105 229 160 41 48 87 125
174 290 236 446 364 1063 424 2044 15 253 15 1030 -1 1280 -59 961 -197 1706
-411 2210 -60 143 -213 416 -260 464 -19 20 -46 50 -60 66 l-25 30 25 -20 c21
-16 20 -14 -5 13 -16 18 -35 30 -42 28 -7 -3 -15 0 -19 6 -4 7 -3 8 4 4 7 -4
12 -5 12 -3 0 3 -22 19 -48 36 -32 20 -56 29 -72 25 -20 -3 -21 -3 -6 4 16 7
12 11 -25 25 -65 24 -139 46 -139 40 0 -3 -6 -1 -13 5 -21 18 -232 61 -392 81
-133 17 -331 35 -265 24 97 -16 55 -24 -61 -12 -91 9 -105 8 -115 -6 -9 -12
-21 -14 -55 -8 -42 7 -43 7 -14 13 60 13 -228 22 -439 15 -243 -8 -728 14
-571 26 44 4 -47 4 -203 1 -283 -5 -431 -17 -267 -22 67 -3 57 -4 -65 -11 -80
-5 -187 -14 -238 -20 -51 -6 -116 -9 -145 -6 -37 5 -46 4 -32 -3 14 -8 1 -9
-47 -6 -38 2 -65 0 -62 -5 3 -5 -15 -9 -39 -9 -24 0 -107 -7 -183 -16 -89 -10
-140 -12 -142 -6 -3 11 -40 5 -59 -10 -6 -5 -17 -8 -25 -7 -29 4 -62 -2 -51
-9 6 -4 -9 -7 -34 -8 -27 -1 -49 -7 -54 -15 -32 -51 41 168 115 343 19 44 20
51 6 43 -5 -3 -10 2 -11 12 0 10 -5 2 -11 -17 -15 -53 -32 -63 -25 -15 3 22 3
32 0 22 -5 -18 -5 -18 -18 -1 -13 19 -11 62 6 79 14 14 11 25 -7 25 -9 0 -23
8 -31 18 -13 16 -15 16 -30 -7 -20 -28 -53 -117 -53 -144 0 -15 2 -16 13 -5
15 15 37 85 37 117 0 15 6 21 21 21 20 0 21 -3 14 -89 -4 -56 -3 -91 3 -95 5
-3 13 1 16 10 3 8 11 12 16 9 8 -5 6 -15 -4 -31 -9 -13 -16 -35 -16 -49 0 -14
-4 -25 -8 -25 -5 0 -14 -23 -21 -50 -8 -30 -18 -49 -25 -47 -6 2 -11 9 -11 15
0 5 -3 13 -6 16 -5 6 -2 30 18 131 10 55 -9 17 -27 -52 -13 -49 -15 -72 -7
-81 7 -9 7 -16 1 -20 -11 -7 -17 -23 -55 -140 -36 -112 -47 -121 -150 -125
l-86 -4 10 36 c6 20 19 47 29 60 10 13 18 28 18 34 0 6 6 18 14 26 16 18 50
140 42 149 -3 3 -6 -2 -6 -11 0 -10 -6 -17 -13 -17 -7 0 -21 -23 -31 -52 -10
-28 -24 -58 -32 -65 -8 -8 -14 -23 -14 -33 0 -31 -20 -34 -21 -3 0 24 -3 21
-15 -17 -8 -25 -13 -54 -11 -66 2 -14 -2 -20 -15 -21 -19 -2 -22 15 -12 54 4
13 10 20 15 17 5 -3 9 13 9 36 0 24 7 48 15 57 9 8 19 28 22 44 3 16 9 27 13
24 18 -11 74 191 64 232 -5 20 -4 24 6 18 10 -6 12 -4 6 10 -8 21 12 88 24 80
11 -7 51 120 44 138 -3 8 2 39 10 68 19 64 15 73 -9 19 -10 -22 -22 -40 -26
-40 -4 0 -11 -10 -14 -22 -4 -13 -16 -32 -26 -43 -10 -12 -25 -39 -33 -60 -8
-22 -15 -34 -15 -27 -2 25 -19 2 -26 -35 -4 -23 -9 -32 -14 -24 -6 8 -13 1
-25 -22 -9 -19 -16 -40 -16 -46 0 -19 -23 -60 -31 -56 -4 3 -15 -15 -24 -40
-10 -24 -21 -42 -26 -39 -4 2 -16 -21 -25 -52 -11 -38 -19 -52 -24 -43 -6 9
-11 5 -16 -16 -11 -45 -31 -79 -37 -63 -4 10 -6 10 -6 1 -1 -7 -5 -13 -10 -13
-5 0 -4 14 2 30 9 25 9 33 -2 39 -9 6 -11 16 -6 27 5 14 9 16 12 5 3 -7 18 18
33 57 15 39 34 78 43 86 8 9 18 29 22 46 4 16 10 30 15 30 4 0 11 11 14 25 4
14 10 25 15 25 5 0 21 35 37 78 15 42 32 82 38 87 7 6 19 34 29 64 32 100 20
105 -52 24 -51 -57 -131 -181 -131 -203 0 -6 -4 -8 -10 -5 -5 3 -11 0 -12 -7
-5 -50 -28 -118 -39 -118 -6 0 -7 -4 -4 -10 3 -5 2 -10 -3 -10 -13 0 -26 -46
-27 -102 -1 -26 -7 -53 -13 -60 -5 -7 -15 -29 -21 -48 l-11 -35 6 38 c3 21 7
46 10 55 2 9 -2 4 -10 -13 -8 -16 -15 -24 -16 -16 0 16 -70 -72 -70 -89 0 -26
-53 -159 -62 -157 -6 1 -18 -22 -26 -50 -13 -42 -21 -53 -37 -53 -12 0 -26 -5
-31 -10 -10 -10 -74 -3 -72 9 0 3 0 22 -1 41 -1 27 -4 31 -11 20 -9 -13 -10
-13 -10 0 -1 8 -8 2 -16 -13 -23 -42 -137 -331 -168 -423 -18 -55 -33 -83 -45
-87 -10 -2 -73 -1 -142 2 -183 9 -282 7 -397 -8 -84 -11 -110 -12 -141 -1 -31
10 -58 10 -147 -2 -60 -9 -113 -13 -117 -11 -14 8 -5 152 12 199 l16 43 -38
76 -37 76 -53 -6 c-38 -5 -48 -4 -37 4 8 6 28 11 44 11 42 0 146 23 146 31 0
4 -12 10 -27 12 -16 2 -2 5 31 6 32 0 77 -4 98 -11 35 -10 41 -10 50 6 8 14
12 15 25 4 14 -11 15 -10 8 12 -10 33 -17 36 -89 49 -44 8 -165 8 -431 0 -496
-15 -486 -10 -495 -225 -4 -97 -9 -126 -22 -141 -17 -19 -17 -20 5 -41 23 -21
24 -21 40 -5 23 26 37 69 37 114 0 21 5 39 10 39 6 0 10 -6 10 -14 0 -8 7 -16
15 -20 19 -7 19 -20 0 -39 -12 -13 -12 -17 4 -31 25 -23 38 -20 16 4 -10 11
-13 20 -7 20 6 0 12 -6 15 -12 3 -10 9 -10 26 0 23 13 28 3 9 -16 -9 -9 17
-12 120 -12 73 0 132 -1 132 -3 0 -1 -36 -40 -81 -85 -54 -55 -79 -88 -75 -98
3 -8 2 -13 -3 -10 -5 3 -18 -10 -30 -30 -24 -40 -26 -48 -9 -38 7 5 8 3 4 -5
-8 -12 19 -51 34 -51 4 0 13 20 20 45 17 61 101 187 156 232 38 32 53 38 93
39 l49 1 -31 -26 c-17 -14 -35 -25 -39 -23 -5 1 -11 -5 -14 -13 -3 -8 -10 -12
-15 -9 -5 3 -9 2 -8 -3 4 -15 -13 -43 -22 -37 -5 3 -8 0 -7 -8 2 -7 -4 -12
-13 -10 -9 1 -24 -9 -34 -24 -23 -36 -12 -41 15 -7 26 32 24 23 -5 -24 -20
-34 -40 -42 -47 -21 -3 7 -7 5 -11 -6 -4 -9 -3 -15 2 -11 18 10 22 -15 10 -56
-12 -40 -48 -67 -70 -53 -28 17 7 -40 57 -92 35 -38 94 -156 103 -208 6 -33
16 -63 22 -67 6 -3 54 -5 107 -4 54 1 119 -2 146 -7 75 -12 298 -27 436 -29
69 -1 166 -7 215 -15 50 -7 125 -15 168 -17 68 -4 77 -2 77 13 0 22 -66 40
-144 40 -36 0 -58 5 -63 14 -4 8 -17 16 -28 19 -19 4 -18 5 2 6 43 2 31 17
-28 33 -56 15 -59 15 -59 -2 0 -10 5 -20 10 -22 6 -2 -11 -4 -37 -4 -27 -1
-61 -5 -77 -9 -22 -6 -31 -4 -38 9 -5 9 -19 16 -31 16 -12 0 -42 14 -66 30
-24 17 -52 30 -61 30 -37 0 -71 81 -38 92 8 3 14 32 16 80 l4 76 -43 6 c-24 3
-57 7 -74 8 -19 2 -30 9 -30 18 0 9 11 16 30 18 17 2 37 6 45 9 8 3 23 5 34 4
11 -2 16 2 12 8 -4 6 -1 11 6 12 78 3 132 8 178 17 145 28 231 34 385 29 88
-4 166 -7 173 -8 15 -3 15 -14 0 -80 -10 -42 -13 -48 -18 -29 -5 20 -7 21 -20
8 -9 -8 -26 -14 -40 -12 -14 1 -34 -3 -45 -10 -12 -7 -60 -10 -125 -9 -58 1
-125 0 -150 -3 l-45 -6 55 -22 c88 -36 141 -66 174 -98 17 -16 42 -35 56 -43
14 -7 44 -33 66 -57 l41 -43 -5 -77 -4 -76 -288 2 c-158 0 -284 4 -279 7 17
10 -123 30 -250 36 -108 5 -128 4 -157 -12 -29 -15 -40 -16 -72 -7 -20 7 -73
21 -117 31 -44 11 -72 20 -62 20 24 1 16 33 -32 136 -49 103 -118 194 -199
260 -97 81 -186 123 -337 160 -16 4 -395 10 -842 14 -446 3 -815 10 -820 14
-9 10 -17 431 -9 454 5 13 11 10 32 -13 27 -30 27 -29 9 34 -5 18 -2 22 15 22
26 0 58 29 43 38 -6 4 -11 27 -11 52 0 33 2 40 8 25 5 -11 9 -16 9 -12 1 4 11
2 24 -4 13 -7 4 8 -25 38 -67 73 -98 140 -118 263 l-18 105 4 -85 c3 -72 2
-80 -7 -50 -7 22 -12 219 -15 543 -4 446 -2 507 11 507 10 0 15 -10 15 -34 l0
-34 353 -4 c272 -4 355 -2 366 8 7 6 20 57 29 112 l16 99 140 38 c334 89 749
222 1436 460 217 75 501 170 630 211 129 41 247 81 262 89 14 8 37 15 50 15
23 0 274 58 353 82 22 7 43 16 46 20 10 15 231 65 345 78 79 9 117 9 130 2 18
-10 18 -11 2 -17 -32 -13 -19 -25 25 -25 61 0 191 -35 264 -70 34 -17 94 -61
135 -99 67 -63 76 -76 110 -162 41 -107 62 -228 53 -322 -3 -39 -2 -55 4 -42
l8 20 5 -20 c2 -11 -1 -38 -7 -60 -7 -22 -9 -51 -6 -65 l7 -24 21 29 c29 41
103 187 103 203 0 7 5 10 10 7 6 -3 10 1 10 9 0 9 7 16 15 16 9 0 15 -9 15
-24 0 -37 19 -42 26 -7 4 17 10 31 13 31 4 0 15 -25 25 -56 15 -49 16 -58 3
-72 -19 -21 -31 -62 -19 -62 5 0 22 25 38 56 16 31 35 60 42 66 18 16 28 0 14
-22 -7 -11 -12 -22 -12 -25 0 -12 44 33 67 68 13 21 37 43 54 49 16 5 29 14
29 19 0 5 9 9 20 9 13 0 20 -7 20 -20 0 -24 8 -25 45 -6 39 21 57 11 43 -22
-6 -15 -10 -46 -9 -68 1 -26 -6 -50 -18 -65 -33 -44 -61 -118 -54 -150 5 -25
8 -27 21 -17 13 11 14 10 10 -12 -4 -14 -18 -56 -33 -95 -36 -92 -54 -144 -60
-177 -3 -15 -12 -34 -21 -43 -15 -15 -38 -85 -27 -85 2 0 18 30 34 68 89 197
225 469 316 627 80 141 155 274 297 527 94 167 226 440 266 548 23 62 26 81
16 89 -12 10 -34 79 -111 341 -108 370 -301 574 -678 714 -126 47 -215 68
-472 110 -388 64 -656 91 -1035 106 -657 26 -5025 45 -6870 30z m-2270 -184
c5 -14 58 -124 119 -245 119 -239 216 -413 292 -529 27 -40 49 -76 49 -78 0
-3 -17 -4 -37 -2 -36 3 -42 8 -116 119 l-78 117 -127 6 c-70 3 -179 9 -242 12
l-115 6 -14 -39 c-29 -82 -80 -183 -93 -182 -7 1 -23 4 -35 7 -21 7 -20 10 41
172 34 91 100 276 146 413 l84 247 58 0 c53 0 59 -2 68 -24z m636 14 c23 0 24
-3 24 -58 0 -133 51 -776 62 -787 2 -3 123 -11 268 -20 146 -9 271 -18 278
-20 6 -3 12 -14 12 -26 0 -21 -3 -22 -67 -16 -38 3 -180 14 -316 24 -234 16
-248 19 -252 38 -22 108 -81 847 -69 867 3 5 13 7 21 4 8 -3 26 -6 39 -6z
m7733 0 c141 -19 279 -111 342 -231 20 -37 24 -58 24 -139 0 -84 -3 -101 -27
-146 -29 -55 -69 -100 -132 -150 l-40 -30 57 -72 c32 -39 57 -75 57 -79 0 -5
-71 -13 -157 -19 l-158 -11 -45 49 -45 49 -113 -7 c-108 -7 -114 -8 -123 -31
-5 -13 -9 -37 -9 -52 0 -28 -1 -29 -77 -35 -43 -3 -108 -9 -145 -12 -80 -7
-74 -31 -53 206 11 128 45 655 45 701 0 5 105 10 233 12 127 1 246 3 262 4 17
1 63 -2 104 -7z m931 6 c0 -20 -44 -414 -56 -501 -15 -106 -36 -234 -50 -302
l-6 -33 -77 0 c-42 0 -107 -3 -145 -7 -62 -6 -69 -5 -63 11 16 40 87 687 87
787 l0 49 155 0 c85 0 155 -2 155 -4z m-1788 -136 c-2 -69 -10 -212 -17 -318
-12 -184 -15 -197 -44 -257 -113 -229 -505 -350 -788 -243 -42 16 -75 39 -120
83 -96 95 -97 104 -88 511 l7 333 150 3 c83 2 152 0 154 -4 3 -4 -1 -140 -7
-302 -6 -163 -8 -311 -5 -330 4 -22 21 -47 45 -69 112 -101 335 -45 380 95 11
36 31 364 31 520 l0 97 128 4 c70 2 138 3 152 3 l25 -1 -3 -125z m-5596 109
c124 -23 247 -119 302 -236 23 -50 27 -71 27 -148 0 -76 -4 -97 -25 -139 -43
-84 -130 -145 -237 -166 -31 -6 -128 -5 -270 2 -123 6 -224 10 -226 7 -2 -2 0
-57 5 -123 5 -65 8 -120 6 -122 -2 -2 -20 -1 -40 2 -35 6 -35 6 -42 68 -13
130 -35 479 -42 669 l-7 197 245 0 c134 0 271 -5 304 -11z m579 -321 c4 -178
10 -326 13 -329 6 -6 581 -29 697 -29 l30 0 -4 335 -3 335 40 0 40 0 6 -132
c3 -73 8 -303 10 -510 l5 -378 -38 0 c-38 0 -38 0 -45 46 -3 26 -6 88 -6 139
l0 92 -177 6 c-98 4 -263 10 -367 14 l-188 6 4 -131 4 -132 -37 0 -36 0 -6 58
c-6 53 -23 512 -30 805 l-3 127 42 0 41 0 8 -322z m1570 145 c79 -228 212
-566 285 -724 33 -72 60 -133 60 -136 0 -2 -19 -3 -42 -1 -42 3 -44 5 -74 65
-17 33 -46 95 -64 137 l-34 76 -243 0 -244 0 -19 -45 c-11 -25 -38 -86 -61
-135 l-42 -90 -43 0 c-24 0 -44 2 -44 5 0 3 15 36 34 73 48 95 190 457 281
720 l78 222 57 0 56 0 59 -167z m1315 163 c0 -10 -103 -292 -109 -298 -5 -6
-182 -18 -263 -18 -17 0 -18 -19 -18 -248 0 -137 -3 -297 -7 -355 l-6 -107
-150 0 -150 0 7 355 7 354 -142 3 -142 3 -47 135 c-26 74 -50 145 -54 158 l-7
22 540 0 c298 0 541 -2 541 -4z m674 -211 c93 -268 172 -478 240 -635 l53
-125 -31 -6 c-17 -4 -83 -9 -147 -12 l-117 -4 -18 41 -19 41 -155 -3 c-85 -1
-180 -5 -211 -8 -53 -5 -56 -7 -79 -50 l-25 -44 -146 0 -147 0 55 111 c85 173
231 532 338 832 l28 77 155 -2 154 -3 72 -210z m-6804 -630 c331 -17 562 -31
755 -45 72 -5 225 -17 340 -25 250 -18 398 -31 1025 -90 1165 -109 1953 -155
2688 -155 l342 0 0 -61 0 -62 -562 6 c-765 8 -1174 35 -2618 177 -624 61 -885
83 -1295 109 -902 58 -1266 67 -1405 37 -265 -57 -474 -181 -567 -337 -56 -94
-76 -218 -47 -294 17 -45 -24 6 -46 57 -18 42 -21 65 -18 118 15 207 243 418
561 519 204 65 334 72 847 46z m11004 0 c335 -58 618 -237 720 -455 39 -83 42
-173 8 -237 -12 -23 -25 -44 -29 -46 -5 -3 -8 36 -8 86 0 82 -4 99 -31 157
-77 164 -270 302 -506 365 -139 36 -253 47 -418 40 -985 -43 -1435 -74 -2320
-160 -1542 -151 -2056 -185 -2813 -185 l-428 0 3 58 3 57 500 6 c764 10 1399
48 2480 149 886 83 1138 103 1730 140 697 43 968 49 1109 25z m-10091 -852
c-7 -2 -19 -2 -25 0 -7 3 -2 5 12 5 14 0 19 -2 13 -5z m8402 -113 c-11 -5 -27
-9 -35 -9 -9 0 -8 4 5 9 11 5 27 9 35 9 9 0 8 -4 -5 -9z m-178 -46 c-3 -3 -12
-4 -19 -1 -8 3 -5 6 6 6 11 1 17 -2 13 -5z m-7792 -34 c7 -12 -2 -12 -30 0
-19 8 -19 9 2 9 12 1 25 -3 28 -9z m9542 -437 c-3 -10 -5 -2 -5 17 0 19 2 27
5 18 2 -10 2 -26 0 -35z m-11498 -8 c0 -5 -4 -3 -9 5 -5 8 -9 22 -9 30 0 16
17 -16 18 -35z m12061 -174 c0 -6 -4 -13 -10 -16 -5 -3 -10 1 -10 9 0 9 5 16
10 16 6 0 10 -4 10 -9z m-99 -234 c-10 -9 -11 -8 -5 6 3 10 9 15 12 12 3 -3 0
-11 -7 -18z m-6803 -23 c89 -3 162 -10 162 -15 0 -5 -5 -9 -10 -9 -16 0 -185
-167 -241 -237 -28 -34 -65 -88 -84 -119 -19 -32 -35 -51 -35 -43 -1 12 0 429
0 438 0 2 10 1 23 -2 12 -3 95 -9 185 -13z m1439 -232 c2 -217 -3 -273 -21
-227 -12 32 -102 163 -154 225 -61 72 -207 210 -222 210 -6 0 -10 5 -10 10 0
6 38 10 93 11 50 1 137 5 192 8 55 4 105 7 110 6 6 -1 11 -92 12 -243z m51
-14 c-1 -215 -3 -235 -8 -133 -11 192 -11 385 0 385 6 0 9 -90 8 -252z m-870
54 l2 -181 58 -11 c96 -19 183 -50 272 -97 185 -99 326 -249 436 -463 44 -87
42 -47 28 -533 l-9 -327 -36 30 c-20 16 -72 83 -115 147 -98 147 -203 255
-309 317 -251 146 -508 131 -742 -46 -75 -56 -179 -169 -220 -238 -42 -70
-108 -157 -141 -185 l-30 -25 -7 49 c-3 26 -5 142 -4 257 2 115 0 274 -5 355
l-8 145 36 71 c148 294 386 476 721 549 l40 9 3 183 c2 140 5 183 15 179 9 -3
13 -53 15 -185z m-821 -670 c-1 -53 -3 -7 -3 103 0 110 2 154 3 97 2 -57 2
-147 0 -200z m-4582 98 l6 -35 -25 40 c-32 49 -35 79 -6 50 11 -11 22 -36 25
-55z m11175 -65 c0 -8 -4 -15 -10 -15 -5 0 -10 7 -10 15 0 8 5 15 10 15 6 0
10 -7 10 -15z m-339 -56 c-6 -16 -10 -18 -10 -7 -1 22 12 55 16 42 2 -6 -1
-22 -6 -35z m14 -54 c-9 -36 -21 -68 -26 -71 -14 -8 -22 43 -11 73 l10 28 2
-30 c1 -26 4 -23 18 22 23 74 29 57 7 -22z m-11005 19 c0 -8 -4 -14 -10 -14
-5 0 -10 9 -10 21 0 11 5 17 10 14 6 -3 10 -13 10 -21z m10951 -31 c-9 -16
-10 -16 -11 -1 0 9 3 25 7 35 7 16 8 17 11 1 2 -10 -1 -25 -7 -35z m-10381
-83 c0 -11 -4 -20 -9 -20 -5 0 -7 9 -4 20 3 11 7 20 9 20 2 0 4 -9 4 -20z
m10244 -34 c-3 -15 -8 -25 -11 -23 -2 3 -1 17 3 31 3 15 8 25 11 23 2 -3 1
-17 -3 -31z m-10249 -40 c36 -62 66 -164 44 -150 -5 3 -9 11 -9 19 0 7 -10 26
-23 42 -12 15 -30 45 -40 66 -34 75 -13 93 28 23z m12553 -3 c-10 -2 -26 -2
-35 0 -10 3 -2 5 17 5 19 0 27 -2 18 -5z m884 -25 c-9 -9 -15 -9 -24 0 -9 9
-7 12 12 12 19 0 21 -3 12 -12z m-3305 -70 c-3 -8 -6 -5 -6 6 -1 11 2 17 5 13
3 -3 4 -12 1 -19z m4223 -13 c30 -10 49 -20 42 -23 -7 -2 -33 3 -59 12 -26 9
-58 16 -72 16 -14 0 -33 5 -41 11 -24 16 65 5 130 -16z m-4210 -32 c-11 -17
-11 -17 -6 0 3 10 6 24 7 30 0 9 2 9 5 0 3 -7 0 -20 -6 -30z m-23 5 c-3 -8 -6
-5 -6 6 -1 11 2 17 5 13 3 -3 4 -12 1 -19z m-12472 -29 c17 0 145 1 285 2 228
0 262 -2 324 -20 38 -11 73 -26 77 -32 4 -7 15 -8 30 -3 34 12 182 4 192 -10
4 -6 5 -23 3 -38 -6 -29 7 -38 21 -15 4 7 21 21 37 31 25 16 34 16 72 6 25 -7
47 -17 50 -21 8 -14 112 -11 116 3 3 9 19 9 72 0 74 -14 229 -91 246 -122 13
-24 13 -67 0 -75 -5 -3 -10 -2 -10 4 0 5 -17 15 -37 21 -21 7 -57 21 -80 32
-56 26 -87 21 -91 -14 -3 -21 -10 -28 -35 -34 -53 -12 -128 -6 -146 10 -22 20
-86 21 -139 2 -36 -13 -41 -13 -47 1 -3 9 -1 21 5 27 14 14 12 26 -5 26 -8 0
-15 -4 -15 -8 0 -12 -56 -42 -78 -42 -28 0 -39 20 -19 35 21 15 12 50 -19 70
-14 9 -22 20 -19 25 4 6 -1 10 -9 10 -9 0 -16 -4 -16 -10 0 -18 -29 -11 -40
10 -13 24 -36 26 -56 5 -16 -15 -11 -55 7 -55 14 0 11 -30 -3 -30 -7 0 -24
-16 -38 -35 -14 -19 -33 -37 -42 -40 -10 -4 -26 -17 -37 -31 -14 -18 -28 -24
-57 -24 -47 0 -62 9 -58 33 1 11 -7 21 -22 27 -13 5 -24 13 -23 17 3 20 -2 27
-12 13 -8 -11 -12 -12 -16 -2 -3 8 -26 12 -64 12 -40 0 -59 4 -59 13 0 8 -4 7
-10 -3 -6 -10 -10 -11 -10 -2 0 17 -35 15 -50 -3 -7 -8 -21 -15 -31 -15 -10 0
-24 -9 -31 -20 -9 -14 -24 -20 -48 -20 -20 0 -45 -7 -56 -15 -21 -16 -24 -14
39 -19 17 -1 36 -19 30 -28 -2 -5 1 -8 6 -8 6 0 11 -6 11 -14 0 -8 7 -22 16
-30 8 -9 13 -16 9 -16 -3 0 -1 -9 5 -20 6 -11 20 -20 30 -20 11 0 20 -4 20
-10 0 -5 -7 -10 -15 -10 -8 0 -15 -4 -15 -10 0 -5 7 -10 16 -10 8 0 12 -4 9
-10 -3 -5 4 -10 16 -10 16 0 19 -3 11 -13 -7 -8 -6 -18 4 -31 19 -27 18 -36
-5 -36 -23 0 -35 -46 -14 -54 10 -4 11 -10 3 -25 -13 -26 -13 -31 5 -31 21 0
19 -12 -5 -33 -11 -9 -20 -28 -20 -42 0 -14 -4 -25 -10 -25 -5 0 -10 -7 -10
-15 0 -9 -11 -20 -24 -26 -13 -6 -27 -20 -29 -30 -5 -20 -98 -69 -130 -69 -9
0 -25 -4 -35 -9 -97 -52 -106 -54 -218 -56 -116 -2 -156 -15 -207 -67 -10 -10
-28 -18 -40 -18 -12 0 -33 -7 -45 -16 -12 -8 -26 -13 -31 -9 -5 3 -12 1 -16
-5 -8 -13 -48 -13 -62 1 -13 13 -108 -5 -119 -22 -8 -14 -48 -11 -70 6 -27 20
-50 18 -73 -7 -17 -18 -47 -25 -173 -44 -84 -12 -165 -20 -179 -17 -15 3 -51
0 -80 -7 -57 -12 -93 -19 -249 -45 -98 -16 -143 -21 -293 -30 -49 -4 -100 -10
-113 -16 -34 -12 -91 -11 -100 2 -4 7 -25 9 -58 5 -41 -5 -59 -2 -88 14 -21
11 -44 20 -51 20 -8 0 -28 16 -45 35 -18 19 -43 37 -56 41 -20 5 -26 17 -39
78 -9 39 -22 84 -30 98 -10 21 -12 44 -5 100 5 40 13 75 17 78 5 3 12 23 15
45 11 74 17 95 41 137 13 24 37 70 54 104 17 34 43 76 58 94 56 67 116 130
123 130 4 0 30 20 56 45 27 25 57 45 66 45 9 0 23 7 32 15 8 8 21 15 28 15 7
0 40 13 73 30 33 16 71 30 85 30 15 0 31 5 37 11 6 6 71 15 145 19 156 10 141
8 134 19 -3 5 10 12 29 15 19 4 35 11 35 16 0 6 9 10 19 10 11 0 22 4 25 8 8
13 170 35 286 38 58 2 260 6 450 9 190 3 352 7 360 9 8 2 83 1 165 -2 83 -2
164 -4 180 -3z m14930 2 c11 0 33 0 49 1 36 1 60 -26 45 -53 -7 -14 -5 -21 10
-29 25 -13 43 -13 78 1 l28 11 -30 16 -30 17 70 8 c98 12 183 11 198 -1 7 -6
82 -14 167 -17 85 -4 162 -11 171 -15 9 -6 20 -5 26 1 18 18 58 6 58 -16 0
-16 -7 -20 -36 -20 -20 0 -43 -6 -51 -13 -8 -6 -29 -14 -47 -16 -39 -4 -48
-13 -33 -28 16 -16 15 -50 -3 -74 -8 -10 -15 -14 -15 -8 0 8 -23 7 -82 -2 -46
-8 -86 -14 -89 -14 -3 0 -6 -7 -6 -15 0 -11 13 -15 50 -15 55 0 60 -8 9 -12
-22 -1 -31 -7 -28 -15 3 -7 -1 -13 -8 -13 -8 0 -23 -3 -33 -6 -14 -4 -12 0 6
16 l25 21 -29 -7 c-18 -4 -26 -3 -22 3 11 17 -37 23 -213 29 -155 4 -221 13
-262 35 -10 5 -42 9 -73 9 -43 0 -56 -4 -65 -19 -15 -28 -68 -43 -110 -31 -59
17 -139 12 -170 -10 -20 -15 -41 -19 -77 -18 -26 2 -58 -1 -70 -5 -16 -6 -27
-3 -41 11 -33 33 -54 41 -76 30 -15 -8 -30 -5 -65 13 -73 38 -110 85 -126 157
-5 25 -12 32 -31 32 -13 0 -24 -4 -24 -10 0 -5 -4 -10 -10 -10 -5 0 -10 10
-10 23 0 20 8 24 68 37 37 8 94 13 127 10 111 -7 430 2 442 13 2 3 74 3 161 1
86 -2 166 -3 177 -3z m-12464 -62 c9 0 10 -2 2 -5 -17 -8 -55 15 -47 28 5 7
11 6 19 -5 7 -10 18 -17 26 -18z m13480 10 c13 -11 18 -17 10 -13 -9 5 -12 3
-7 -5 4 -6 11 -9 16 -6 5 3 17 -7 27 -22 10 -15 22 -31 28 -35 6 -5 5 -11 -4
-17 -15 -9 -9 -41 8 -41 5 0 8 20 5 46 -2 28 0 43 6 39 6 -3 10 1 10 9 0 22
22 20 43 -4 9 -11 25 -20 36 -20 14 0 23 -11 32 -37 15 -48 41 -73 67 -66 11
2 23 0 26 -6 4 -6 15 -11 24 -11 10 0 23 -10 31 -22 12 -19 11 -24 -9 -40 -12
-10 -37 -18 -55 -18 -41 0 -184 35 -221 55 -16 8 -41 15 -56 15 -49 0 -76 17
-87 55 -5 19 -21 49 -35 66 -28 33 -33 68 -14 87 20 20 93 15 119 -9z m-13561
-19 c0 -5 -4 -10 -10 -10 -5 0 -10 5 -10 10 0 6 5 10 10 10 6 0 10 -4 10 -10z
m11455 0 c3 -5 -3 -10 -15 -10 -12 0 -18 5 -15 10 3 6 10 10 15 10 5 0 12 -4
15 -10z m-62 -15 c1 -5 -13 -11 -30 -13 -34 -3 -46 13 -15 21 24 7 43 4 45 -8z
m-11293 -17 c0 -13 -3 -18 -8 -12 -4 6 -16 16 -27 22 -19 11 -18 11 8 12 21 0
27 -5 27 -22z m11208 13 c11 -6 10 -11 -3 -25 -24 -24 -115 -20 -115 5 0 5 13
9 29 9 17 0 33 5 36 10 7 12 35 13 53 1z m-6628 -6 c0 -2 -10 -9 -22 -15 -22
-11 -22 -10 -4 4 21 17 26 19 26 11z m6838 -57 c7 -17 8 -30 2 -33 -15 -9 -12
-25 5 -25 29 0 75 -30 75 -49 0 -14 -10 -20 -47 -25 -26 -3 -50 -3 -54 1 -5 5
-10 26 -12 48 -5 49 -28 66 -56 41 -19 -18 -51 -16 -51 2 0 12 39 30 70 34 14
2 25 9 25 18 0 17 17 32 26 22 3 -4 10 -19 17 -34z m-6972 -50 c-89 -90 -127
-147 -163 -248 -12 -36 -23 -56 -23 -45 1 30 52 145 94 208 21 32 68 82 104
112 37 30 67 55 69 55 1 0 -35 -37 -81 -82z m6589 52 c0 -18 -7 -26 -31 -32
-22 -5 -34 -16 -38 -33 -3 -13 -16 -30 -27 -36 -18 -9 -25 -7 -41 9 -17 17
-18 22 -6 43 17 32 28 39 59 39 14 0 34 9 44 20 23 25 40 21 40 -10z m2215
-52 c22 -24 23 -28 12 -46 -13 -20 -71 -32 -147 -31 -63 1 -66 2 -30 9 65 13
69 15 80 25 6 6 16 22 22 38 15 33 35 34 63 5z m-11600 -18 c17 -42 6 -49 -14
-9 -19 37 -19 39 -7 39 5 0 14 -14 21 -30z m113 15 c1 -5 -20 -14 -46 -19 -48
-9 -66 -2 -67 27 0 12 110 4 113 -8z m6197 10 c0 -13 -59 -136 -60 -124 0 9 7
33 15 52 8 20 15 42 14 49 0 7 -8 -7 -19 -32 -10 -25 -22 -44 -27 -43 -28 6
-103 44 -103 53 0 5 -7 10 -16 10 -23 0 -11 24 16 30 25 6 180 10 180 5z
m-6098 -17 c29 -25 48 -63 48 -100 0 -21 -4 -38 -10 -38 -5 0 -10 13 -10 30 0
17 -9 38 -22 50 -41 37 -66 18 -30 -24 13 -16 14 -18 1 -8 -13 10 -18 10 -26
0 -12 -15 -26 -55 -28 -79 -1 -9 -11 -32 -23 -50 -21 -33 -22 -33 -22 -8 0 14
-4 29 -9 35 -9 9 -41 101 -41 116 0 5 8 5 17 -1 26 -14 66 11 83 53 15 38 42
47 72 24z m9398 -7 c0 -23 -19 -31 -76 -31 -37 0 -44 3 -44 19 0 16 8 21 43
24 23 2 50 4 60 5 11 1 17 -5 17 -17z m2738 -49 c3 -37 1 -42 -18 -42 -27 0
-60 17 -60 32 0 19 43 59 60 56 10 -2 16 -17 18 -46z m-12878 30 c0 -5 -21
-23 -47 -41 l-48 -32 45 40 c49 44 50 45 50 33z m6620 -37 c0 -19 6 -25 23
-26 45 -3 52 -5 75 -13 14 -4 21 -13 18 -21 -3 -8 -1 -15 4 -17 12 -4 1 -48
-11 -48 -5 0 -9 4 -9 10 0 16 -93 66 -98 52 -9 -29 -22 -8 -22 38 0 28 5 50
10 50 6 0 10 -11 10 -25z m6623 -47 c23 -28 21 -41 -5 -32 -30 9 -58 34 -58
51 0 20 40 7 63 -19z m-289 -3 l29 -6 -22 -15 c-25 -18 -45 -13 -60 14 -11 21
-14 21 53 7z m-6309 -45 c3 -6 -1 -7 -9 -4 -18 7 -21 14 -7 14 6 0 13 -4 16
-10z m-5907 -48 c2 -13 -5 -25 -19 -32 -19 -11 -21 -10 -16 5 4 9 7 26 7 37 0
26 24 18 28 -10z m-737 -5 c-10 -9 -11 -8 -5 6 3 10 9 15 12 12 3 -3 0 -11 -7
-18z m7159 -51 c0 -2 -7 -7 -16 -10 -8 -3 -12 -2 -9 4 6 10 25 14 25 6z
m-8909 -99 c12 -44 6 -156 -10 -184 -6 -11 -8 5 -7 50 1 61 -13 101 -29 85 -9
-9 -11 -98 -3 -143 6 -29 5 -34 -2 -17 -5 12 -11 22 -14 22 -2 0 -2 -10 0 -22
3 -13 -4 -5 -16 17 -21 39 -21 42 -6 110 8 39 18 88 22 110 4 22 9 44 12 49 8
15 41 -32 53 -77z m2001 52 c95 -61 201 -204 224 -302 6 -27 5 -28 -22 -21
-35 8 -58 27 -85 71 -22 36 -79 69 -166 97 l-53 18 0 84 0 84 27 0 c14 0 48
-14 75 -31z m6986 -55 l3 -80 -52 -12 c-70 -16 -176 -68 -184 -90 -17 -50
-115 -118 -115 -80 0 54 71 177 142 246 84 82 117 102 163 99 l40 -2 3 -81z
m-4101 24 c-3 -7 -5 -2 -5 12 0 14 2 19 5 13 2 -7 2 -19 0 -25z m-10 -110 c-2
-18 -4 -6 -4 27 0 33 2 48 4 33 2 -15 2 -42 0 -60z m6176 -91 c15 -34 15 -42
3 -65 l-15 -27 2 35 c1 25 -2 35 -13 35 -8 0 -16 9 -18 20 -2 11 -10 39 -18
62 -10 28 -13 54 -8 75 7 33 7 32 29 -32 12 -36 29 -82 38 -103z m-15514 81
c-15 -68 -52 -193 -59 -198 -4 -3 -10 -17 -14 -32 -3 -16 -11 -28 -17 -28 -6
0 -6 6 1 19 5 11 10 31 10 45 0 14 5 28 10 31 6 3 10 15 10 26 0 10 5 19 10
19 6 0 10 7 10 16 0 8 7 39 16 67 9 29 18 58 20 65 9 30 11 8 3 -30z m13041 8
c0 -3 -4 -8 -10 -11 -5 -3 -10 -1 -10 4 0 6 5 11 10 11 6 0 10 -2 10 -4z
m-3693 -83 c-3 -10 -5 -4 -5 12 0 17 2 24 5 18 2 -7 2 -21 0 -30z m3643 17
c-6 -11 -13 -20 -16 -20 -2 0 0 9 6 20 6 11 13 20 16 20 2 0 0 -9 -6 -20z
m-3559 -216 c19 -31 63 -87 99 -123 36 -36 51 -55 33 -43 -78 55 -192 228
-208 317 -3 17 5 2 18 -32 14 -35 40 -88 58 -119z m3800 -71 c5 -14 8 -28 5
-30 -4 -5 -36 50 -36 62 0 14 22 -9 31 -32z m-6518 -8 c-3 -9 -8 -14 -10 -11
-3 3 -2 9 2 15 9 16 15 13 8 -4z m6480 -27 c18 -43 28 -98 19 -98 -4 0 -12 19
-19 43 -6 23 -14 52 -18 65 -11 34 3 26 18 -10z m-11033 -43 c10 -12 10 -15
-4 -15 -9 0 -16 7 -16 15 0 8 2 15 4 15 2 0 9 -7 16 -15z m4500 -18 c0 -2 -10
-12 -22 -23 l-23 -19 19 23 c18 21 26 27 26 19z m13356 -207 c48 -216 83 -472
98 -725 l5 -90 -18 70 c-10 39 -23 102 -30 140 -21 127 -45 224 -55 218 -5 -4
-6 13 -2 42 5 31 4 45 -3 41 -15 -10 -20 19 -26 154 -3 69 -9 143 -15 165 -5
22 -9 67 -9 100 l1 60 15 -35 c8 -19 26 -82 39 -140z m-13406 156 c0 -3 -4 -8
-10 -11 -5 -3 -10 -1 -10 4 0 6 5 11 10 11 6 0 10 -2 10 -4z m3089 -22 c14
-12 -19 -1 -35 12 -18 14 -18 14 6 3 14 -6 27 -13 29 -15z m-3049 6 c0 -5 -5
-10 -11 -10 -5 0 -7 5 -4 10 3 6 8 10 11 10 2 0 4 -4 4 -10z m-837 -37 c-13
-2 -35 -2 -50 0 -16 2 -5 4 22 4 28 0 40 -2 28 -4z m7640 -40 c-7 -2 -19 -2
-25 0 -7 3 -2 5 12 5 14 0 19 -2 13 -5z m-281 -568 c-2 -14 -8 -25 -13 -25 -5
0 -9 -11 -9 -24 0 -24 -16 -43 -26 -33 -9 9 30 107 42 107 7 0 9 -10 6 -25z
m-3614 -287 c3 -24 0 -28 -23 -28 -27 0 -41 20 -31 46 10 27 51 13 54 -18z
m857 2 c0 -16 -6 -26 -19 -28 -25 -5 -39 12 -31 38 10 31 50 24 50 -10z m-663
-1 c50 -20 74 -111 42 -157 -8 -12 -10 -22 -5 -22 6 0 11 -4 11 -9 0 -5 -10
-9 -22 -9 -13 0 -42 -3 -64 -7 -76 -13 -130 38 -127 118 2 34 9 48 38 75 37
34 63 36 127 11z m260 0 c53 -21 77 -96 48 -150 -10 -17 -10 -24 -1 -27 22 -7
11 -21 -16 -21 -16 0 -48 -2 -73 -6 -40 -6 -49 -3 -78 22 -41 35 -51 85 -28
134 30 63 74 77 148 48z m276 -6 c13 -8 30 -30 38 -49 30 -73 -22 -154 -100
-154 -43 0 -93 35 -106 75 -16 50 -4 90 38 125 31 26 43 30 72 25 19 -4 46
-13 58 -22z m4002 -17 c0 -2 -7 -6 -15 -10 -8 -3 -15 -1 -15 4 0 6 7 10 15 10
8 0 15 -2 15 -4z m-8680 -160 c0 -7 17 -13 40 -14 22 -2 51 -7 63 -12 17 -8
12 -9 -25 -8 -26 1 -50 -1 -54 -5 -4 -4 6 -7 22 -8 l29 -1 -29 -8 c-16 -5 -33
-7 -38 -4 -5 3 -30 7 -56 10 -159 14 -208 33 -92 35 41 1 60 4 43 6 -40 5 -41
12 -7 52 l26 31 39 -31 c21 -17 39 -36 39 -43z m8714 43 c-15 -16 -16 -24 -6
-39 27 -44 0 -56 -37 -16 l-23 24 38 26 c47 31 53 33 28 5z m-7171 -36 c-7 -2
-19 -2 -25 0 -7 3 -2 5 12 5 14 0 19 -2 13 -5z m5579 -4 c-23 -4 -47 -11 -52
-14 -6 -3 -10 -4 -10 0 0 10 44 24 75 23 24 0 22 -2 -13 -9z m-70 -34 c0 -5
-5 -11 -10 -13 -5 -1 -9 4 -9 13 0 9 4 14 9 13 5 -2 10 -8 10 -13z m1851 8
c-7 -2 -19 -2 -25 0 -7 3 -2 5 12 5 14 0 19 -2 13 -5z m-8578 -39 c55 -7 170
-23 255 -34 197 -25 200 -26 200 -50 0 -30 -60 -26 -118 7 -40 23 -56 27 -129
27 -46 0 -83 3 -83 6 0 4 -39 12 -87 19 -106 15 -269 54 -188 45 28 -3 95 -12
150 -20z m3842 -29 c34 -34 35 -38 29 -83 -4 -26 -7 -59 -6 -74 0 -28 -15 -39
-22 -17 -3 9 -9 9 -25 0 -47 -25 -120 -6 -148 38 -49 77 2 171 94 171 36 0 49
-6 78 -35z m242 21 c44 -23 67 -105 41 -146 -5 -8 -5 -19 0 -25 5 -6 5 -17 -1
-25 -7 -13 -10 -13 -18 -1 -6 10 -13 11 -29 2 -41 -22 -88 -13 -128 24 -34 33
-36 38 -31 82 9 85 89 128 166 89z m270 -2 c26 -19 51 -71 51 -108 0 -16 -14
-39 -35 -61 -30 -29 -43 -35 -78 -35 -104 0 -153 116 -81 192 23 23 36 28 74
28 26 0 56 -7 69 -16z m2198 10 c-3 -3 -12 -4 -19 -1 -8 3 -5 6 6 6 11 1 17
-2 13 -5z m1719 -3 c5 -5 20 -11 33 -13 14 -1 26 -8 28 -15 6 -18 -35 -20
-100 -5 -44 9 -77 10 -129 3 -38 -5 -80 -6 -91 -2 -18 7 -12 10 33 20 107 22
210 27 226 12z m-8423 -8 c-7 -2 -21 -2 -30 0 -10 3 -4 5 12 5 17 0 24 -2 18
-5z m6265 -10 c-10 -2 -26 -2 -35 0 -10 3 -2 5 17 5 19 0 27 -2 18 -5z m1867
-23 c17 -6 15 -8 -15 -13 -19 -3 -87 -8 -150 -10 l-115 -5 105 18 c120 20 147
22 175 10z m-9703 -530 c-1 -131 -7 -265 -16 -342 -25 -198 -17 -453 15 -494
4 -5 11 -311 13 -680 3 -368 8 -707 11 -754 3 -47 3 -80 0 -75 -7 16 -44 553
-54 800 -24 558 -21 1406 6 1915 l8 135 8 -145 c5 -80 9 -242 9 -360z m9393
469 c-22 -5 -101 -11 -175 -14 -101 -4 -138 -9 -151 -21 -14 -13 -31 -14 -100
-7 l-84 9 70 8 c39 5 108 14 155 21 97 14 352 17 285 4z m-7158 -5 c-3 -3 -12
-4 -19 -1 -8 3 -5 6 6 6 11 1 17 -2 13 -5z m3117 -30 c8 -21 -11 -44 -36 -44
-21 0 -33 22 -24 45 7 20 52 19 60 -1z m859 4 c7 -21 -12 -48 -34 -48 -22 0
-34 22 -25 45 7 18 53 20 59 3z m2940 -15 c-7 -2 -21 -2 -30 0 -10 3 -4 5 12
5 17 0 24 -2 18 -5z m-3580 -133 c26 -29 28 -37 23 -79 -4 -25 -7 -58 -7 -72
0 -22 -5 -26 -32 -26 -18 -1 -48 -2 -68 -3 -74 -4 -129 66 -109 139 15 57 52
83 114 78 41 -4 55 -10 79 -37z m236 25 c32 -16 51 -55 50 -100 0 -16 0 -47 0
-68 0 -35 -3 -38 -22 -33 -12 3 -39 1 -59 -3 -47 -11 -108 15 -126 53 -36 79
11 166 90 166 21 0 52 -7 67 -15z m261 2 c36 -18 62 -74 55 -117 -4 -19 -8
-44 -9 -55 -3 -21 -7 -22 -92 -31 -47 -5 -55 -3 -85 24 -30 27 -34 36 -34 82
0 46 4 55 33 81 36 32 87 38 132 16z m-4783 -132 c7 -3 3 -28 -15 -80 -25 -73
-25 -78 -9 -108 9 -18 18 -52 19 -77 3 -43 5 -41 46 80 23 69 42 136 42 149 0
24 1 24 77 17 42 -3 79 -8 82 -11 3 -3 -1 -16 -9 -28 -43 -69 -121 -234 -145
-308 -26 -79 -27 -88 -13 -108 15 -21 16 -19 42 52 44 120 169 295 255 357 26
18 34 18 125 7 53 -7 95 -17 94 -22 -1 -6 -18 -18 -38 -28 -73 -39 -186 -135
-244 -207 -62 -78 -135 -221 -155 -302 -12 -52 -14 -85 -5 -75 9 8 44 -32 44
-50 0 -7 4 -13 9 -13 5 0 13 -15 16 -32 10 -44 173 -368 185 -368 6 0 10 -9
10 -20 0 -11 7 -20 15 -20 13 0 15 -35 15 -258 l0 -258 -46 -38 c-90 -75 -190
-134 -154 -91 11 13 10 14 -4 9 -9 -3 -16 -14 -16 -24 0 -20 -26 -34 -42 -23
-6 3 -8 1 -4 -5 3 -6 2 -13 -4 -17 -5 -3 -10 -2 -10 2 0 5 -10 9 -22 10 -42 4
-49 23 -54 154 -3 68 -6 138 -8 155 -3 24 1 34 25 50 38 25 57 88 53 174 -3
73 2 56 -94 330 -40 113 -114 331 -165 486 l-92 280 8 120 c4 65 8 127 8 136
1 15 10 17 84 12 45 -3 87 -7 94 -9z m9013 -77 c0 -45 3 -59 10 -48 5 8 10 31
11 50 0 29 2 31 9 15 15 -34 11 -88 -10 -142 -11 -29 -17 -53 -14 -53 4 0 2
-6 -3 -12 -6 -7 -13 -33 -17 -58 -9 -60 -87 -290 -97 -285 -4 3 -10 -22 -14
-55 -8 -65 -77 -276 -96 -294 -9 -8 -10 -6 -5 9 16 45 36 185 36 255 l0 75
-32 -55 c-28 -50 -31 -67 -39 -176 -12 -180 -42 -354 -61 -354 -5 0 -7 12 -4
28 36 165 54 462 36 587 -25 177 -109 370 -208 477 -25 28 -23 48 6 48 36 -1
141 -177 186 -312 14 -42 32 -111 39 -154 l13 -78 28 50 c24 42 27 56 21 99
-12 100 -108 278 -194 359 -37 36 -39 46 -7 46 54 0 186 -207 221 -345 8 -33
18 -118 23 -190 l7 -130 13 103 c28 234 11 383 -63 565 -5 13 -2 17 12 17 15
0 24 -15 41 -67 39 -123 45 -166 45 -328 l-1 -160 18 47 c28 73 42 144 35 170
-4 17 -4 19 3 9 15 -21 27 81 27 226 0 92 3 123 13 123 8 0 12 -19 12 -62z
m-4752 -48 c55 -34 70 -115 30 -166 -18 -23 -19 -27 -5 -21 10 3 17 2 17 -4 0
-7 -10 -9 -24 -5 -13 3 -37 1 -54 -5 -23 -8 -38 -7 -65 5 -45 18 -70 56 -70
107 0 32 7 47 34 75 39 40 85 45 137 14z m255 9 c46 -21 75 -109 50 -153 -6
-10 -8 -27 -6 -37 3 -11 0 -19 -6 -19 -6 0 -11 4 -11 9 0 6 -16 3 -35 -5 -78
-32 -155 21 -155 107 0 83 85 134 163 98z m266 -4 c30 -15 61 -69 61 -105 0
-32 -38 -80 -77 -97 -70 -29 -145 22 -149 102 -2 39 2 51 28 80 25 29 37 35
70 35 21 0 52 -7 67 -15z m-720 -29 c17 -20 2 -46 -25 -46 -26 0 -40 20 -30
45 7 19 40 20 55 1z m859 -13 c-2 -22 -9 -29 -30 -31 -24 -3 -28 0 -28 21 0
30 7 37 37 37 21 0 24 -4 21 -27z m-673 -207 c82 -35 85 -159 5 -201 -39 -20
-69 -19 -108 5 -70 43 -75 131 -11 185 35 28 64 31 114 11z m264 0 c39 -20 53
-40 61 -87 10 -53 -11 -92 -63 -115 -78 -35 -157 19 -157 109 0 39 5 49 35 76
40 35 79 40 124 17z m265 0 c54 -22 84 -108 52 -151 -8 -11 -12 -25 -9 -31 2
-7 -1 -15 -8 -20 -8 -4 -10 -3 -5 4 9 16 5 15 -33 -4 -119 -59 -222 117 -113
191 42 28 68 31 116 11z m-719 -196 c0 -18 -6 -26 -23 -28 -24 -4 -38 18 -28
44 3 9 15 14 28 12 17 -2 23 -10 23 -28z m863 3 c-4 -35 -43 -45 -53 -14 -9
28 1 41 31 41 22 0 25 -4 22 -27z m5318 -680 c-5 -219 -12 -450 -16 -513 -5
-71 -6 -22 -2 125 4 132 7 312 7 400 1 258 5 385 12 385 3 0 3 -179 -1 -397z
m-29 25 c-2 -13 -4 -5 -4 17 -1 22 1 32 4 23 2 -10 2 -28 0 -40z m-1446 -344
c21 -24 22 -26 3 -16 -25 13 -50 42 -37 42 5 0 20 -12 34 -26z m46 -121 c-2
-16 -4 -5 -4 22 0 28 2 40 4 28 2 -13 2 -35 0 -50z m-33 15 c10 -38 7 -58 -9
-58 -11 0 -15 11 -15 40 0 43 14 54 24 18z m-290 -88 c10 -13 9 -13 -6 -1 -10
7 -18 21 -17 30 0 13 1 14 6 1 3 -8 11 -22 17 -30z m-8054 -384 c-7 -7 -10 -5
-10 7 0 20 -3 21 -30 7 -38 -19 -62 -31 -103 -53 -23 -12 -59 -24 -82 -27
l-40 -5 67 -64 c49 -47 84 -71 135 -91 l68 -27 3 -118 c2 -109 1 -117 -15
-112 -10 3 -40 12 -68 20 -27 8 -87 30 -133 50 -46 21 -89 37 -96 37 -9 0 -12
9 -8 26 3 19 1 25 -7 20 -7 -5 -11 1 -11 14 0 12 -5 18 -10 15 -7 -4 -10 88
-9 274 0 155 4 281 7 281 4 0 18 -9 32 -20 20 -15 23 -21 13 -31 -26 -26 -12
-32 15 -7 30 29 123 78 147 78 23 0 77 38 110 80 l30 37 3 -190 c1 -120 -1
-194 -8 -201z m8070 300 c26 -23 51 -35 83 -40 28 -4 62 -19 88 -39 87 -66 84
-64 68 -39 -8 12 -17 22 -21 22 -20 0 -4 22 37 50 l45 31 0 -134 c0 -93 -4
-137 -12 -146 -10 -10 -10 -15 -1 -18 8 -3 12 -53 12 -164 l2 -160 -28 25
c-15 14 -31 26 -34 26 -4 0 -10 17 -14 38 -4 20 -20 60 -35 88 l-29 50 22 22
21 22 -21 0 c-12 0 -25 5 -28 10 -3 6 -14 10 -24 10 -19 0 -21 27 -7 81 9 32
-19 50 -29 18 -9 -26 -24 -24 -35 6 -5 14 -14 26 -20 26 -5 1 -16 2 -22 3 -7
0 -14 18 -16 40 -2 28 -9 40 -23 43 -16 5 -19 14 -19 62 0 31 -3 66 -6 79 -9
30 2 28 46 -12z m-8681 -273 c49 -41 81 -106 81 -163 l0 -39 -62 35 c-35 19
-79 51 -98 69 l-34 34 22 24 c12 13 22 32 22 43 0 21 8 34 20 34 3 0 26 -17
49 -37z m9281 4 c24 -19 41 -57 33 -70 -17 -30 -62 -70 -102 -92 -24 -14 -45
-25 -47 -25 -11 0 -1 61 17 100 19 41 65 100 78 100 3 0 13 -6 21 -13z m1097
-64 c-3 -10 -5 -2 -5 17 0 19 2 27 5 18 2 -10 2 -26 0 -35z m-15929 -358 c0
-16 -2 -15 -8 5 -4 14 -8 41 -8 60 l0 35 9 -40 c4 -22 8 -49 7 -60z m15242 52
c0 -9 -10 -12 -31 -9 -18 3 -34 0 -38 -7 -6 -9 -15 -8 -36 3 l-28 15 54 4 c30
2 60 4 67 5 6 1 12 -4 12 -11z m-807 -20 l37 -14 -36 -11 c-44 -13 -74 -1 -74
30 0 22 1 22 73 -5z m-9342 -18 c-5 -13 -10 -19 -10 -12 -1 15 10 45 15 40 3
-2 0 -15 -5 -28z m117 -6 c-10 -2 -26 -2 -35 0 -10 3 -2 5 17 5 19 0 27 -2 18
-5z m-5201 -70 c-3 -10 -5 -4 -5 12 0 17 2 24 5 18 2 -7 2 -21 0 -30z m14307
22 c-25 -19 -60 -19 -68 0 -4 12 4 15 41 15 43 0 45 -1 27 -15z m-9837 -37
c-3 -7 -5 -2 -5 12 0 14 2 19 5 13 2 -7 2 -19 0 -25z m9733 13 c0 -6 -4 -13
-10 -16 -5 -3 -10 1 -10 9 0 9 5 16 10 16 6 0 10 -4 10 -9z m-8299 -19 c-7 -2
-18 1 -23 6 -8 8 -4 9 13 5 13 -4 18 -8 10 -11z m159 -57 c14 -8 21 -14 15
-14 -5 0 -21 6 -35 14 -14 8 -20 14 -15 14 6 0 21 -6 35 -14z m-6043 -27 c-3
-7 -5 -2 -5 12 0 14 2 19 5 13 2 -7 2 -19 0 -25z m6113 -14 c0 -2 -9 0 -20 6
-11 6 -20 13 -20 16 0 2 9 0 20 -6 11 -6 20 -13 20 -16z m-6103 -36 c-3 -8 -6
-5 -6 6 -1 11 2 17 5 13 3 -3 4 -12 1 -19z m42 -173 c0 -5 -4 -3 -9 5 -5 8 -9
22 -9 30 0 16 17 -16 18 -35z"/>
<path d="M10592 15022 c-19 -53 -56 -159 -84 -235 -27 -76 -48 -140 -47 -141
7 -6 419 -17 419 -11 0 3 -22 45 -49 94 -28 49 -84 157 -126 240 -41 83 -76
151 -78 151 -1 0 -17 -44 -35 -98z"/>
<path d="M18747 14923 c-3 -5 -8 -60 -11 -123 -4 -63 -9 -128 -13 -144 l-5
-29 131 6 c151 7 197 22 249 81 60 68 34 165 -55 202 -35 15 -288 20 -296 7z"/>
<path d="M12147 15103 c-4 -9 9 -323 18 -449 l7 -82 61 -6 c34 -3 137 -8 228
-12 192 -7 237 2 308 62 62 53 86 105 84 184 -1 79 -28 143 -87 203 -69 72
-118 89 -275 98 -179 10 -339 11 -344 2z"/>
<path d="M14601 14952 c-28 -81 -141 -382 -166 -444 -7 -17 7 -18 205 -18 198
0 212 1 207 18 -3 9 -37 99 -76 200 -39 100 -83 218 -98 262 -16 44 -30 80
-33 80 -3 0 -20 -44 -39 -98z"/>
<path d="M16450 14628 c-30 -78 -57 -146 -59 -151 -3 -9 206 -4 215 5 5 5 -90
288 -96 288 -3 0 -30 -64 -60 -142z"/>
<path d="M15112 11964 c2 -14 17 -21 53 -27 135 -21 285 -90 396 -182 93 -76
208 -239 186 -262 -4 -3 3 -13 15 -22 12 -10 21 -30 22 -48 0 -17 3 -29 5 -27
3 3 11 -6 18 -18 13 -21 14 -20 8 17 -9 55 -45 136 -57 128 -6 -3 -8 0 -6 8 8
20 -18 66 -77 139 -125 153 -288 253 -471 290 -33 6 -67 14 -77 17 -14 4 -18
0 -15 -13z"/>
<path d="M15060 11931 c-8 -4 -42 -14 -74 -20 -79 -17 -212 -74 -208 -90 1 -7
-2 -10 -7 -6 -23 14 -178 -96 -164 -117 4 -7 1 -8 -7 -3 -8 5 -27 -8 -56 -40
-24 -26 -44 -51 -44 -56 0 -5 -4 -9 -9 -9 -4 0 -24 -25 -44 -55 -19 -30 -31
-55 -27 -55 5 0 20 18 32 40 13 21 32 44 43 50 11 6 27 23 36 39 16 28 132
126 177 150 12 7 20 17 16 23 -4 7 -2 8 5 4 6 -4 28 2 49 14 46 28 149 64 225
81 56 12 82 29 75 48 -1 5 -10 6 -18 2z m-133 -57 c-3 -3 -12 -4 -19 -1 -8 3
-5 6 6 6 11 1 17 -2 13 -5z"/>
<path d="M15000 11850 c-115 -26 -213 -66 -203 -83 3 -6 1 -7 -5 -3 -14 8
-108 -48 -104 -63 1 -7 -1 -10 -6 -7 -19 11 -182 -159 -182 -190 0 -4 7 1 15
12 14 18 15 17 9 -11 l-6 -30 17 23 c9 13 15 32 12 43 -3 12 -1 19 5 17 6 -2
36 22 66 54 31 32 71 68 90 80 26 16 31 23 20 30 -9 7 -8 8 6 4 11 -4 34 2 54
15 51 30 152 66 219 78 58 11 78 22 72 39 -2 5 -36 1 -79 -8z"/>
<path d="M15112 11794 c2 -13 20 -21 63 -30 189 -38 350 -125 506 -274 41 -38
75 -70 75 -70 1 0 -1 11 -3 24 -9 43 -210 201 -348 273 -61 32 -189 75 -258
87 -34 6 -38 5 -35 -10z"/>
<path d="M15112 11733 c2 -13 19 -21 58 -30 188 -42 313 -110 458 -248 29 -27
60 -62 68 -77 8 -16 19 -28 25 -28 15 0 -13 42 -79 117 -114 131 -299 238
-462 268 -19 4 -43 9 -53 12 -14 4 -18 0 -15 -14z"/>
<path d="M15035 11678 c-114 -25 -288 -85 -325 -113 -8 -6 -45 -29 -82 -51
-42 -24 -68 -46 -68 -56 0 -10 5 -18 10 -18 6 0 10 8 10 17 0 9 3 14 6 10 3
-3 35 12 71 34 116 71 246 121 350 135 50 6 79 23 71 42 -1 4 -21 4 -43 0z"/>
<path d="M14466 11443 c-22 -46 -17 -50 11 -7 12 18 18 36 14 38 -4 3 -15 -11
-25 -31z"/>
<path d="M14470 11381 c-8 -6 -18 -7 -22 -5 -4 3 -8 0 -8 -5 0 -15 13 -14 36
4 21 16 17 20 -6 6z"/>
<path d="M8800 10990 c0 -5 11 -10 25 -10 14 0 25 5 25 10 0 6 -11 10 -25 10
-14 0 -25 -4 -25 -10z"/>
<path d="M7220 10140 c0 -5 5 -10 10 -10 6 0 10 5 10 10 0 6 -4 10 -10 10 -5
0 -10 -4 -10 -10z"/>
<path d="M18388 8633 c7 -3 16 -2 19 1 4 3 -2 6 -13 5 -11 0 -14 -3 -6 -6z"/>
<path d="M10731 7854 c0 -11 3 -14 6 -6 3 7 2 16 -1 19 -3 4 -6 -2 -5 -13z"/>
<path d="M19502 7640 c0 -14 2 -19 5 -12 2 6 2 18 0 25 -3 6 -5 1 -5 -13z"/>
<path d="M10797 6003 c-10 -9 -9 -123 1 -123 5 0 19 11 32 25 13 14 28 25 35
25 15 0 47 39 40 50 -11 17 -32 11 -49 -15 -23 -35 -36 -31 -36 10 0 33 -8 43
-23 28z"/>
<path d="M19394 6276 c-9 -23 0 -69 14 -74 8 -2 12 9 12 37 0 41 -16 64 -26
37z"/>
<path d="M9420 12725 c0 -8 5 -15 10 -15 6 0 10 -7 10 -16 0 -18 35 -86 64
-124 21 -29 22 -31 -27 73 -20 43 -37 82 -37 88 0 5 -4 9 -10 9 -5 0 -10 -7
-10 -15z"/>
<path d="M20772 12700 c0 -14 2 -19 5 -12 2 6 2 18 0 25 -3 6 -5 1 -5 -13z"/>
<path d="M20682 12545 c-17 -37 -14 -45 4 -12 9 16 14 31 11 33 -2 2 -9 -7
-15 -21z"/>
<path d="M9520 12528 c0 -18 33 -88 42 -88 4 0 8 -4 8 -10 0 -9 62 -103 83
-125 14 -15 -18 47 -75 148 -51 87 -58 97 -58 75z"/>
<path d="M20986 12355 c-9 -26 -7 -32 5 -12 6 10 9 21 6 23 -2 3 -7 -2 -11
-11z"/>
<path d="M8990 12329 c0 -18 28 -70 33 -62 3 5 -3 22 -14 39 -10 16 -19 26
-19 23z"/>
<path d="M9150 12316 c0 -25 29 -84 45 -89 22 -9 19 29 -6 69 -21 35 -39 44
-39 20z"/>
<path d="M20935 12268 c-10 -23 -19 -51 -20 -62 -4 -36 -5 -37 -14 -31 -5 3
-12 -4 -16 -15 -4 -11 -11 -18 -16 -15 -5 3 -6 -2 -2 -11 4 -11 3 -15 -4 -11
-7 4 -16 -7 -23 -28 -6 -19 -17 -35 -23 -35 -14 0 -87 -138 -87 -163 0 -26
-32 -87 -43 -80 -6 4 -7 -4 -3 -22 7 -29 -11 -98 -24 -90 -4 3 -11 -3 -14 -12
-4 -9 -2 -19 4 -23 13 -8 -3 -56 -21 -62 -7 -2 -9 -12 -5 -26 8 -23 8 -23 29
5 12 15 24 30 28 33 4 3 11 17 14 33 4 15 12 24 17 21 5 -3 9 2 7 12 -1 11 7
39 17 64 11 25 26 65 34 90 7 25 17 49 22 54 4 6 8 33 8 61 0 54 17 85 53 98
9 3 17 13 17 22 0 8 4 15 9 15 10 0 47 89 56 137 3 17 13 37 21 44 8 6 14 18
14 25 0 27 -16 14 -35 -28z m-163 -360 c-7 -7 -12 -8 -12 -2 0 14 12 26 19 19
2 -3 -1 -11 -7 -17z"/>
<path d="M9660 12289 c0 -20 55 -129 96 -189 74 -111 105 -167 99 -182 -3 -8
5 -25 17 -39 13 -14 32 -43 43 -64 11 -22 22 -42 26 -45 17 -16 49 -81 44 -90
-9 -15 -25 -12 -25 4 0 7 -7 19 -15 26 -13 10 -15 9 -15 -9 0 -12 7 -24 15
-27 8 -4 15 -15 15 -25 0 -28 19 -23 26 6 7 28 14 31 34 13 14 -13 4 5 -74
134 -25 42 -46 79 -46 82 0 4 -20 39 -43 79 -24 39 -70 119 -102 177 -52 92
-95 160 -95 149z"/>
<path d="M21172 12175 c-7 -15 -11 -30 -8 -32 7 -7 28 36 24 49 -2 6 -9 -2
-16 -17z"/>
<path d="M20991 12144 c0 -11 3 -14 6 -6 3 7 2 16 -1 19 -3 4 -6 -2 -5 -13z"/>
<path d="M20540 12135 c-7 -9 -8 -15 -2 -15 5 0 12 7 16 15 3 8 4 15 2 15 -2
0 -9 -7 -16 -15z"/>
<path d="M20977 12105 c-3 -11 -8 -47 -11 -80 l-6 -60 20 55 c14 38 18 62 12
80 -8 23 -9 23 -15 5z"/>
<path d="M21093 12080 c-13 -21 -23 -48 -23 -58 0 -10 -6 -32 -14 -48 -19 -39
-30 -108 -17 -100 6 4 5 -9 -3 -31 -10 -28 -18 -38 -33 -37 -16 1 -24 -9 -34
-40 -7 -23 -16 -43 -19 -46 -3 -3 -18 -30 -33 -60 l-29 -55 27 25 c15 14 34
40 42 58 7 18 18 30 23 27 9 -6 24 30 17 42 -3 5 2 15 11 23 14 13 15 12 9 -4
-5 -11 -3 -16 5 -14 20 7 83 158 70 167 -9 5 -5 22 13 60 27 55 37 121 20 127
-5 2 -20 -14 -32 -36z m-103 -340 c0 -5 -5 -10 -11 -10 -5 0 -7 5 -4 10 3 6 8
10 11 10 2 0 4 -4 4 -10z"/>
<path d="M20613 12072 c-37 -41 -47 -78 -13 -47 11 10 20 23 20 28 0 6 7 19
17 29 9 10 14 20 12 22 -2 2 -19 -12 -36 -32z"/>
<path d="M20420 11936 c-6 -9 -10 -21 -8 -28 3 -8 9 -4 17 10 15 28 9 39 -9
18z"/>
<path d="M20901 11924 c0 -11 3 -14 6 -6 3 7 2 16 -1 19 -3 4 -6 -2 -5 -13z"/>
<path d="M9143 11923 c-13 -5 49 -155 67 -161 14 -5 8 17 -29 104 -14 33 -31
59 -38 57z"/>
<path d="M9240 11875 c0 -41 21 -113 37 -126 10 -9 17 -9 25 -1 9 9 5 25 -15
66 -15 30 -27 59 -27 65 0 5 -4 13 -10 16 -6 4 -10 -5 -10 -20z"/>
<path d="M16143 11873 c9 -2 25 -2 35 0 9 3 1 5 -18 5 -19 0 -27 -2 -17 -5z"/>
<path d="M13669 11855 c-58 -7 -142 -22 -186 -34 -54 -14 -105 -20 -154 -18
-55 1 -86 -3 -121 -18 -55 -23 -64 -38 -15 -25 17 5 82 14 142 20 61 6 168 20
239 32 99 16 131 18 134 9 3 -9 10 -7 23 5 11 10 47 23 82 30 l62 12 -50 0
c-27 0 -98 -6 -156 -13z"/>
<path d="M16319 11856 c39 -9 70 -21 78 -32 11 -16 15 -16 22 -5 8 12 29 10
137 -7 71 -12 176 -26 234 -32 58 -5 121 -12 140 -15 l35 -5 -40 20 c-30 14
-61 20 -121 20 -44 0 -103 7 -130 15 -68 20 -221 43 -329 49 l-90 5 64 -13z"/>
<path d="M21001 11853 c0 -4 4 -17 9 -28 8 -19 9 -19 9 2 1 12 -3 25 -9 28 -5
3 -10 3 -9 -2z"/>
<path d="M13970 11840 l-45 -7 53 -1 c29 -1 52 2 52 8 0 6 -3 9 -7 8 -5 0 -28
-4 -53 -8z"/>
<path d="M16111 11834 c0 -11 3 -14 6 -6 3 7 2 16 -1 19 -3 4 -6 -2 -5 -13z"/>
<path d="M9761 11824 c0 -11 3 -14 6 -6 3 7 2 16 -1 19 -3 4 -6 -2 -5 -13z"/>
<path d="M16148 11833 c12 -2 30 -2 40 0 9 3 -1 5 -23 4 -22 0 -30 -2 -17 -4z"/>
<path d="M13878 11823 c7 -3 16 -2 19 1 4 3 -2 6 -13 5 -11 0 -14 -3 -6 -6z"/>
<path d="M16228 11823 c6 -2 18 -2 25 0 6 3 1 5 -13 5 -14 0 -19 -2 -12 -5z"/>
<path d="M16122 11785 c0 -16 3 -50 7 -75 6 -41 7 -42 12 -15 2 17 -1 50 -8
75 -9 37 -11 40 -11 15z"/>
<path d="M13383 11753 c9 -2 23 -2 30 0 6 3 -1 5 -18 5 -16 0 -22 -2 -12 -5z"/>
<path d="M16718 11753 c6 -2 18 -2 25 0 6 3 1 5 -13 5 -14 0 -19 -2 -12 -5z"/>
<path d="M20871 11734 c0 -11 3 -14 6 -6 3 7 2 16 -1 19 -3 4 -6 -2 -5 -13z"/>
<path d="M16366 11727 c3 -10 9 -15 12 -12 3 3 0 11 -7 18 -10 9 -11 8 -5 -6z"/>
<path d="M9821 11707 c-8 -10 -4 -26 15 -65 14 -29 28 -52 30 -52 2 0 -5 23
-15 50 -11 28 -15 53 -10 56 12 7 12 24 0 24 -5 0 -14 -6 -20 -13z"/>
<path d="M16151 11684 c0 -11 3 -14 6 -6 3 7 2 16 -1 19 -3 4 -6 -2 -5 -13z"/>
<path d="M16161 11638 c-1 -15 4 -30 9 -33 12 -7 12 12 0 40 -8 18 -9 17 -9
-7z"/>
<path d="M16141 11620 c-1 -40 18 -170 26 -183 4 -7 6 -20 4 -31 -1 -11 2 -16
8 -12 6 4 9 1 5 -7 -12 -31 97 -197 128 -197 7 0 6 5 -1 13 -6 8 -7 18 -3 22
4 5 1 5 -6 1 -13 -8 -42 15 -42 33 0 6 -3 11 -8 11 -14 0 -32 41 -37 85 -4 39
-2 45 15 45 22 0 44 -35 34 -53 -5 -8 -2 -7 9 2 12 9 17 10 17 2 0 -6 -6 -14
-13 -17 -8 -3 -11 -18 -9 -44 5 -51 22 -52 22 -2 0 49 8 57 30 29 10 -12 21
-20 23 -17 3 3 -16 28 -42 56 -26 29 -45 57 -43 64 3 8 0 10 -8 5 -9 -5 -11
-4 -6 3 4 6 2 19 -3 29 -5 10 -20 44 -32 75 -23 59 -40 74 -21 19 6 -17 8 -31
4 -31 -19 1 -31 18 -30 45 0 17 -5 41 -10 55 l-11 25 0 -25z"/>
<path d="M13790 11594 c-155 -26 -294 -67 -318 -94 -73 -79 -75 -83 -34 -70
52 18 221 49 332 61 l111 12 25 49 c14 27 24 53 22 57 -2 5 -64 -2 -138 -15z"/>
<path d="M16220 11606 c0 -4 11 -28 25 -55 l24 -48 98 -13 c83 -10 231 -36
322 -57 24 -6 23 -4 -12 38 -28 35 -50 50 -99 67 -106 37 -358 85 -358 68z"/>
<path d="M20153 11488 c-45 -51 -52 -68 -30 -68 16 0 48 34 66 72 24 47 7 45
-36 -4z"/>
<path d="M13360 11393 c-23 -23 -23 -24 -3 -14 22 11 38 30 32 35 -2 2 -15 -8
-29 -21z"/>
<path d="M6905 11350 c-82 -3 46 -4 285 -2 239 3 437 6 439 8 6 6 -550 1 -724
-6z"/>
<path d="M22718 11353 c46 -2 118 -2 160 0 42 1 5 3 -83 3 -88 0 -123 -2 -77
-3z"/>
<path d="M23088 11353 c12 -2 30 -2 40 0 9 3 -1 5 -23 4 -22 0 -30 -2 -17 -4z"/>
<path d="M7983 11343 c37 -2 96 -2 130 0 34 2 4 3 -68 3 -71 0 -99 -1 -62 -3z"/>
<path d="M20671 11334 c0 -11 3 -14 6 -6 3 7 2 16 -1 19 -3 4 -6 -2 -5 -13z"/>
<path d="M20742 11308 c-6 -23 -9 -44 -7 -46 2 -2 9 15 15 38 6 23 9 44 7 46
-2 3 -9 -14 -15 -38z"/>
<path d="M23368 11343 c6 -2 18 -2 25 0 6 3 1 5 -13 5 -14 0 -19 -2 -12 -5z"/>
<path d="M6598 11333 c23 -2 59 -2 80 0 20 2 1 4 -43 4 -44 0 -61 -2 -37 -4z"/>
<path d="M8268 11333 c17 -2 47 -2 65 0 17 2 3 4 -33 4 -36 0 -50 -2 -32 -4z"/>
<path d="M21685 11331 c-44 -3 -75 -9 -69 -13 6 -4 51 -3 100 2 49 5 109 11
134 13 28 2 21 3 -20 3 -36 0 -101 -2 -145 -5z"/>
<path d="M6490 11320 c11 -7 -2 -10 -45 -11 -33 0 -71 -5 -85 -10 -17 -6 -2
-7 45 -4 93 7 135 15 135 26 0 5 -15 9 -32 9 -25 0 -29 -3 -18 -10z"/>
<path d="M21511 11316 c11 -9 90 -16 84 -6 -3 5 -25 10 -47 10 -23 0 -39 -2
-37 -4z"/>
<path d="M21433 11303 c15 -2 37 -2 50 0 12 2 0 4 -28 4 -27 0 -38 -2 -22 -4z"/>
<path d="M20031 11286 c-8 -9 -11 -19 -7 -23 9 -9 29 13 24 27 -2 8 -8 7 -17
-4z"/>
<path d="M21280 11290 l-45 -7 40 -1 c22 0 60 3 85 7 l45 8 -40 0 c-22 0 -60
-3 -85 -7z"/>
<path d="M8965 11276 c6 -3 28 -8 50 -11 34 -6 37 -9 20 -16 -17 -8 -16 -9 5
-4 14 2 45 5 70 6 44 1 45 1 11 9 -35 8 -173 22 -156 16z"/>
<path d="M21135 11270 l-30 -8 30 0 c17 0 39 3 50 8 l20 9 -20 -1 c-11 0 -33
-4 -50 -8z"/>
<path d="M20501 11254 c0 -11 3 -14 6 -6 3 7 2 16 -1 19 -3 4 -6 -2 -5 -13z"/>
<path d="M16427 11241 c18 -11 44 -23 58 -27 14 -3 28 -10 31 -15 3 -5 9 -7
14 -4 10 6 22 -24 14 -37 -3 -5 -17 -7 -31 -4 -29 8 -51 -3 -32 -15 11 -7 11
-9 1 -9 -8 0 -10 -5 -6 -12 5 -8 2 -9 -12 -4 -10 5 -28 10 -39 13 -16 3 -15 1
5 -11 31 -18 123 -33 255 -41 98 -5 99 -5 68 11 -32 16 -44 34 -22 34 6 0 8 8
4 19 -4 12 0 21 12 25 15 6 15 8 3 16 -11 7 2 10 40 11 30 1 -15 5 -100 10
-117 6 -168 12 -205 27 -86 34 -91 35 -58 13z"/>
<path d="M20066 11244 c-10 -26 -7 -41 5 -24 8 12 9 9 5 -12 -15 -73 -15 -79
3 -29 18 51 19 81 1 81 -4 0 -11 -7 -14 -16z"/>
<path d="M20627 11247 c-11 -29 -9 -43 4 -30 6 6 9 19 7 29 -3 18 -4 18 -11 1z"/>
<path d="M21068 11253 c7 -3 16 -2 19 1 4 3 -2 6 -13 5 -11 0 -14 -3 -6 -6z"/>
<path d="M9140 11240 c-24 -8 -24 -8 5 -9 17 0 37 4 45 9 12 8 11 10 -5 9 -11
-1 -31 -5 -45 -9z"/>
<path d="M9228 11233 c7 -3 16 -2 19 1 4 3 -2 6 -13 5 -11 0 -14 -3 -6 -6z"/>
<path d="M9268 11223 c7 -3 16 -2 19 1 4 3 -2 6 -13 5 -11 0 -14 -3 -6 -6z"/>
<path d="M13645 11219 c-16 -5 -93 -13 -170 -18 -77 -4 -114 -9 -83 -10 46 -1
56 -4 52 -15 -3 -8 -13 -17 -22 -19 -12 -3 -11 -5 5 -6 32 -2 38 -20 9 -31
-14 -5 -30 -18 -36 -30 -6 -11 -18 -20 -27 -20 -14 0 -14 -3 -5 -12 10 -10 14
-10 20 -1 5 8 57 16 143 22 131 10 235 34 223 52 -3 5 -12 9 -20 9 -8 0 -13
-4 -10 -9 3 -5 -1 -12 -10 -15 -23 -9 -24 -8 -24 12 0 11 -11 24 -25 30 -32
15 -32 30 1 42 14 6 22 14 19 20 -3 5 -7 10 -8 9 -1 0 -15 -5 -32 -10z"/>
<path d="M19971 11188 c-5 -13 -7 -25 -5 -27 7 -8 44 31 38 40 -9 16 -24 10
-33 -13z"/>
<path d="M20051 11184 c0 -11 3 -14 6 -6 3 7 2 16 -1 19 -3 4 -6 -2 -5 -13z"/>
<path d="M13829 11173 c-13 -16 -12 -17 4 -4 9 7 17 15 17 17 0 8 -8 3 -21
-13z"/>
<path d="M20611 11174 c0 -11 3 -14 6 -6 3 7 2 16 -1 19 -3 4 -6 -2 -5 -13z"/>
<path d="M5626 11155 c-25 -19 -9 -19 24 0 14 8 19 14 10 14 -8 0 -24 -6 -34
-14z"/>
<path d="M19910 11156 c0 -8 4 -17 9 -20 5 -4 7 3 4 14 -6 23 -13 26 -13 6z"/>
<path d="M13790 11150 c-9 -6 -10 -10 -3 -10 6 0 15 5 18 10 8 12 4 12 -15 0z"/>
<path d="M16377 11139 c7 -7 15 -10 18 -7 3 3 -2 9 -12 12 -14 6 -15 5 -6 -5z"/>
<path d="M13960 11110 c-19 -17 -30 -30 -24 -30 6 0 23 14 39 30 36 38 30 38
-15 0z"/>
<path d="M20581 11104 c0 -11 3 -14 6 -6 3 7 2 16 -1 19 -3 4 -6 -2 -5 -13z"/>
<path d="M20620 11089 c0 -5 5 -7 10 -4 6 3 10 8 10 11 0 2 -4 4 -10 4 -5 0
-10 -5 -10 -11z"/>
<path d="M16242 11074 c10 -10 20 -15 24 -12 3 4 -5 12 -18 18 -22 12 -22 12
-6 -6z"/>
<path d="M13896 11065 c-62 -47 -254 -62 -445 -36 -91 13 -125 8 -39 -6 42 -7
52 -12 50 -26 -2 -11 4 -17 17 -17 14 0 21 -8 23 -27 2 -22 8 -27 23 -25 16 3
18 1 8 -9 -20 -20 -15 -39 9 -39 17 0 19 -3 10 -12 -7 -7 -61 -14 -134 -17
l-123 -6 145 -8 c201 -10 377 -8 430 4 47 11 174 68 167 75 -2 2 -31 -9 -63
-25 -52 -26 -98 -36 -144 -32 -11 1 -8 7 9 22 13 11 21 22 18 25 -2 3 -31 8
-63 11 l-59 6 43 19 c49 20 54 48 12 59 l-25 6 30 8 c49 12 125 47 125 56 0
12 -1 11 -24 -6z m-299 -141 c-3 -3 -12 -4 -19 -1 -8 3 -5 6 6 6 11 1 17 -2
13 -5z m171 -81 c-43 -2 -113 -2 -155 0 -43 1 -8 3 77 3 85 0 120 -2 78 -3z"/>
<path d="M14120 11060 c0 -5 -7 -7 -15 -4 -9 4 -15 0 -15 -9 0 -8 7 -18 16
-21 17 -6 14 -31 -3 -31 -6 0 -15 -4 -20 -9 -5 -5 -3 -6 5 -2 21 12 13 -6 -14
-30 -14 -13 -21 -24 -15 -24 5 0 20 13 34 29 14 17 28 27 31 24 3 -4 6 15 6
40 0 26 -2 47 -5 47 -3 0 -5 -4 -5 -10z"/>
<path d="M16318 11038 c5 -5 16 -8 23 -6 8 3 3 7 -10 11 -17 4 -21 3 -13 -5z"/>
<path d="M16710 11028 c-25 -5 -107 -10 -183 -11 -75 -1 -129 -5 -120 -9 10
-4 30 -12 46 -18 36 -13 35 -28 -2 -22 -25 3 -30 0 -40 -29 -21 -60 -22 -59
109 -59 113 0 120 1 120 20 0 11 5 20 11 20 6 0 9 12 7 28 -2 17 2 26 10 25 6
-2 12 4 12 12 0 9 10 15 26 15 14 0 23 4 19 10 -4 6 5 10 19 10 14 0 26 5 26
10 0 11 2 11 -60 -2z"/>
<path d="M14152 10960 c0 -19 2 -27 5 -17 2 9 2 25 0 35 -3 9 -5 1 -5 -18z"/>
<path d="M16165 10900 c79 -53 130 -64 318 -68 181 -4 225 0 197 19 -9 5 -97
9 -205 8 l-190 -2 -62 32 c-70 35 -104 41 -58 11z"/>
<path d="M18793 10913 c-13 -3 -23 -5 -23 -6 0 -2 24 -28 54 -59 l54 -57 -12
51 c-12 55 -35 77 -73 71z"/>
<path d="M13495 10900 c3 -5 8 -10 11 -10 2 0 4 5 4 10 0 6 -5 10 -11 10 -5 0
-7 -4 -4 -10z"/>
<path d="M18672 10891 c-19 -11 49 -147 78 -156 11 -4 31 -17 43 -30 29 -29
97 -25 97 7 0 31 -25 70 -77 119 -68 66 -107 82 -141 60z"/>
<path d="M17223 10853 c15 -2 37 -2 50 0 12 2 0 4 -28 4 -27 0 -38 -2 -22 -4z"/>
<path d="M12778 10843 c6 -2 18 -2 25 0 6 3 1 5 -13 5 -14 0 -19 -2 -12 -5z"/>
<path d="M16843 10843 c9 -2 25 -2 35 0 9 3 1 5 -18 5 -19 0 -27 -2 -17 -5z"/>
<path d="M12539 10793 c-13 -17 -13 -17 6 -3 11 8 22 16 24 17 2 2 0 3 -6 3
-6 0 -17 -8 -24 -17z"/>
<path d="M17610 10807 c0 -3 12 -12 26 -22 15 -9 23 -12 20 -6 -7 11 -46 35
-46 28z"/>
<path d="M18895 10770 c-8 -13 15 -13 35 0 12 8 11 10 -7 10 -12 0 -25 -4 -28
-10z"/>
<path d="M18720 10684 c0 -8 5 -12 10 -9 6 3 10 10 10 16 0 5 -4 9 -10 9 -5 0
-10 -7 -10 -16z"/>
<path d="M17941 10496 c2 -2 15 -9 29 -15 24 -11 24 -11 6 3 -16 13 -49 24
-35 12z"/>
<path d="M10937 10354 c-4 -4 -7 -11 -7 -16 0 -13 50 -6 53 7 2 12 -36 19 -46
9z"/>
<path d="M11185 10310 c-3 -5 1 -10 10 -10 9 0 13 5 10 10 -3 6 -8 10 -10 10
-2 0 -7 -4 -10 -10z"/>
<path d="M19330 9940 c-10 -7 6 -10 54 -10 38 0 67 2 65 4 -11 9 -106 14 -119
6z"/>
</g>
</svg>
