<svg width="360" height="160" viewBox="0 0 360 160" fill="none" xmlns="http://www.w3.org/2000/svg">
<path fill-rule="evenodd" clip-rule="evenodd" d="M213.414 0.0346317C258.566 0.0173169 295.499 0.0519466 295.499 0.121206C295.499 0.20778 287.961 13.6614 261.995 59.8227L201.2 59.84C167.755 59.8573 138.925 59.8919 137.133 59.9093C135.341 59.9439 132.838 60.0305 131.582 60.0997C130.325 60.169 128.202 60.3594 126.858 60.5153C125.524 60.6711 123.79 60.9135 123.011 61.052C122.232 61.1906 121.492 61.3464 121.355 61.381C121.219 61.4156 120.946 61.5022 120.751 61.5542C120.547 61.6061 120.216 61.6754 120.021 61.7273C119.816 61.7793 119.349 61.9005 118.969 62.0043C118.599 62.1082 117.372 62.5065 116.242 62.8874C115.122 63.2683 113.739 63.8224 113.174 64.0994C112.609 64.3765 111.557 64.9825 110.836 65.45C110.116 65.9002 109.181 66.5235 108.772 66.8179C108.353 67.1122 107.476 67.8394 106.824 68.4108C106.161 68.9995 105.275 69.8307 104.847 70.2635C104.418 70.6964 103.522 71.6833 102.85 72.4625C102.178 73.2417 101.038 74.6788 100.318 75.6484C99.597 76.6181 98.4964 78.1764 97.8828 79.0941C97.2692 80.0118 96.2855 81.5528 95.6914 82.4878C95.107 83.4401 93.0422 86.8684 91.1235 90.1063C89.1951 93.3615 86.3609 98.1577 84.8318 100.772C83.3027 103.387 80.3418 108.46 78.2478 112.027C76.1635 115.594 73.6702 119.87 72.706 121.55C71.7418 123.212 70.2516 125.792 69.3945 127.247C68.5374 128.718 67.1836 131.056 66.3753 132.441C65.5766 133.826 64.1254 136.32 63.1612 137.999C62.197 139.661 60.0251 143.401 58.3401 146.31C56.6552 149.219 54.2397 153.409 50.6458 159.643H25.3229C11.3953 159.643 0 159.591 0 159.504C0 159.435 5.92167 148.907 13.1679 136.094C20.4044 123.281 29.7739 106.729 33.9814 99.3005C38.1889 91.8551 44.1787 81.3104 47.2857 75.8389C50.3926 70.3674 54.6196 62.922 56.6844 59.3032C58.7492 55.6844 61.2717 51.2692 62.2846 49.5031C63.3073 47.7369 64.4663 45.7457 64.8656 45.0878C65.2649 44.4125 65.8785 43.4082 66.2292 42.8542C66.5701 42.2828 67.1447 41.3478 67.4953 40.7591C67.8459 40.1877 68.7225 38.7852 69.4432 37.6424C70.164 36.5169 71.021 35.1837 71.3424 34.7162C71.6638 34.2314 72.0145 33.7119 72.1216 33.5215C72.2287 33.3483 72.8618 32.4133 73.5241 31.4437C74.1864 30.4914 75.287 28.9331 75.959 28.0154C76.631 27.0804 77.9069 25.4008 78.7932 24.2754C79.6795 23.1326 81.0333 21.4704 81.8125 20.5873C82.5917 19.6869 84.0623 18.094 85.0753 17.0551C86.0979 16.0162 87.7634 14.4579 88.7763 13.5748C89.799 12.7091 91.5716 11.3239 92.7208 10.5101C93.8701 9.71361 95.3603 8.72667 96.0323 8.34574C96.7043 7.9475 98.1263 7.18565 99.1977 6.64889C100.269 6.11213 101.691 5.45417 102.363 5.19444C103.035 4.91741 104.175 4.50185 104.895 4.25944C105.616 4.01703 107.048 3.58417 108.061 3.28981C109.083 2.99546 110.018 2.71843 110.155 2.6838C110.291 2.64917 110.885 2.49333 111.47 2.35481C112.064 2.21629 113.203 1.97388 114.002 1.83537C114.81 1.67953 116.252 1.45444 117.216 1.29861C118.18 1.16009 120.07 0.934996 121.404 0.796477C122.748 0.657959 125.134 0.450185 126.712 0.346296C128.29 0.242407 129.984 0.138521 130.462 0.121206C130.949 0.0865762 168.271 0.0519466 213.414 0.0346317ZM304.995 0H359.147L269.348 159.643H215.196L304.995 0ZM197.246 69.4324C244.347 69.4324 256.258 69.4844 256.307 69.6575C256.346 69.7787 250.463 80.3581 225.199 125.273L182.257 125.29C158.648 125.29 138.623 125.359 137.766 125.429C136.909 125.498 135.663 125.636 134.991 125.723C134.319 125.827 133.647 125.931 133.481 125.965C133.325 126 132.994 126.069 132.751 126.121C132.507 126.19 132.137 126.277 131.923 126.329C131.708 126.381 130.968 126.623 130.267 126.866C129.575 127.091 128.407 127.645 127.686 128.06C126.907 128.528 125.874 129.307 125.154 129.982C124.482 130.606 123.673 131.437 123.352 131.818C123.03 132.199 122.242 133.255 121.599 134.173C120.771 135.333 118.463 139.298 106.989 159.643L59.801 159.556L76.5239 129.861C85.7181 113.533 93.5779 99.5775 93.9772 98.8503C94.3863 98.1231 95.5063 96.1838 96.4706 94.5216C97.4348 92.8594 98.7983 90.6084 99.4898 89.5003C100.191 88.4095 101.37 86.626 102.12 85.5698C102.869 84.4963 104.116 82.8514 104.895 81.9337C105.674 80.9987 106.59 79.9598 106.941 79.6135C107.291 79.2672 108.119 78.4881 108.791 77.8647C109.463 77.2414 110.496 76.4103 111.08 76.012C111.674 75.6138 112.784 74.9039 113.564 74.4537C114.343 73.9862 115.55 73.3802 116.242 73.0858C116.943 72.7915 118.141 72.3586 118.92 72.1335C119.699 71.8911 121.034 71.5275 121.891 71.337C122.748 71.1293 123.556 70.9388 123.693 70.9042C123.829 70.8695 124.248 70.8003 124.618 70.731C124.998 70.6618 125.368 70.5925 125.446 70.5579C125.524 70.5406 126.098 70.454 126.712 70.3847C127.326 70.3155 127.9 70.2289 127.978 70.2116C128.056 70.1769 128.825 70.1077 129.683 70.0384C130.54 69.9692 131.348 69.8999 131.484 69.848C131.621 69.8133 133.179 69.7441 134.942 69.6748C136.715 69.6056 138.175 69.5363 138.195 69.5017C138.214 69.467 164.784 69.4324 197.246 69.4324ZM301.245 139.557V141.202C301.245 142.397 301.216 142.847 301.128 142.865C301.06 142.865 300.271 142.865 297.739 142.847L297.69 159.556L295.596 159.643V142.847L294.165 142.865C293.366 142.865 292.577 142.865 292.09 142.847L292.071 141.324C292.061 140.475 292.09 139.731 292.139 139.679C292.188 139.609 294.252 139.557 301.245 139.557ZM305.277 139.644L305.56 140.943C305.706 141.653 306.222 144.232 306.699 146.656C307.177 149.081 307.722 151.851 307.917 152.803C308.112 153.756 308.287 154.656 308.316 154.794C308.336 154.933 308.54 154.154 308.755 153.063C308.969 151.972 309.553 148.925 310.05 146.31C310.556 143.696 311.063 141.098 311.423 139.54L314.15 139.644L314.199 159.643L312.202 159.556L312.144 145.185L311.803 146.743C311.618 147.609 311.043 150.414 310.527 152.976C310.011 155.556 309.495 158.102 309.183 159.66L307.459 159.556L307.167 158.257C307.001 157.548 306.573 155.435 306.212 153.582C305.852 151.73 305.355 149.271 305.112 148.128C304.868 146.985 304.635 145.825 304.586 145.531C304.537 145.219 304.489 147.955 304.411 159.556H302.463L302.434 149.894C302.404 142.795 302.424 140.146 302.511 139.886C302.609 139.575 302.716 139.557 305.277 139.644Z" fill="#F0F0F1"/>
</svg>
