<svg width="44" height="44" viewBox="0 0 44 44" fill="none" xmlns="http://www.w3.org/2000/svg">
<path d="M14.4375 41.25C14.9798 41.2523 15.5173 41.1471 16.0188 40.9406C16.5203 40.7341 16.9759 40.4304 17.3594 40.0469C17.7429 39.6634 18.0466 39.2077 18.2531 38.7063C18.4596 38.2048 18.5648 37.6673 18.5625 37.125V28.875" stroke="#F0F0F1" stroke-width="2.09524" stroke-linecap="round" stroke-linejoin="round"/>
<path d="M29.5625 41.25C29.0202 41.2523 28.4828 41.1471 27.9813 40.9406C27.4798 40.7341 27.0241 40.4304 26.6407 40.0469C26.2572 39.6634 25.9534 39.2077 25.7469 38.7063C25.5404 38.2048 25.4353 37.6673 25.4375 37.125V28.875" stroke="#F0F0F1" stroke-width="2.09524" stroke-linecap="round" stroke-linejoin="round"/>
<path d="M26.125 28.875H28.875C29.4173 28.8727 29.9548 28.9779 30.4563 29.1844C30.9577 29.3909 31.4134 29.6946 31.7969 30.0781C32.1804 30.4616 32.4841 30.9173 32.6906 31.4188C32.8971 31.9202 33.0023 32.4577 33 33V34.375C32.9977 34.9173 33.1029 35.4548 33.3094 35.9563C33.5159 36.4578 33.8196 36.9134 34.2031 37.2969C34.5866 37.6804 35.0423 37.9841 35.5437 38.1906C36.0452 38.3971 36.5827 38.5023 37.125 38.5" stroke="#F0F0F1" stroke-width="2.09524" stroke-linecap="round" stroke-linejoin="round"/>
<path d="M17.875 28.875H15.125C14.5827 28.8727 14.0452 28.9779 13.5437 29.1844C13.0422 29.3909 12.5866 29.6946 12.2031 30.0781C11.8196 30.4616 11.5159 30.9173 11.3094 31.4188C11.1029 31.9202 10.9977 32.4577 11 33V34.375C11.0023 34.9173 10.8971 35.4548 10.6906 35.9563C10.4841 36.4578 10.1804 36.9134 9.79689 37.2969C9.41339 37.6804 8.95775 37.9841 8.45626 38.1906C7.95476 38.3971 7.41734 38.5023 6.875 38.5" stroke="#F0F0F1" stroke-width="2.09524" stroke-linecap="round" stroke-linejoin="round"/>
<path d="M19.2156 11C18.4078 9.73587 17.2948 8.69542 15.9792 7.97453C14.6636 7.25364 13.1877 6.87551 11.6875 6.875C11.0205 8.02962 10.6202 9.31886 10.5161 10.6482C10.412 11.9776 10.6067 13.3134 11.0859 14.5578C10.1461 15.9432 9.63777 17.576 9.625 19.25V20.625C9.625 22.813 10.4942 24.9115 12.0414 26.4586C13.5885 28.0058 15.687 28.875 17.875 28.875H26.125C28.313 28.875 30.4115 28.0058 31.9586 26.4586C33.5058 24.9115 34.375 22.813 34.375 20.625V19.25C34.3622 17.576 33.8539 15.9432 32.9141 14.5578C33.3933 13.3134 33.588 11.9776 33.4839 10.6482C33.3798 9.31886 32.9795 8.02962 32.3125 6.875C30.8123 6.87551 29.3364 7.25364 28.0208 7.97453C26.7052 8.69542 25.5922 9.73587 24.7844 11H19.2156Z" stroke="#F0F0F1" stroke-width="2.09524" stroke-linecap="round" stroke-linejoin="round"/>
</svg>
