<svg width="44" height="44" viewBox="0 0 44 44" fill="none" xmlns="http://www.w3.org/2000/svg">
<path d="M22 27.8438C25.2274 27.8438 27.8438 25.2274 27.8438 22C27.8438 18.7726 25.2274 16.1562 22 16.1562C18.7726 16.1562 16.1562 18.7726 16.1562 22C16.1562 25.2274 18.7726 27.8438 22 27.8438Z" stroke="#F0F0F1" stroke-width="2.09524" stroke-linecap="round" stroke-linejoin="round"/>
<path d="M30.25 5.5H13.75C9.19365 5.5 5.5 9.19365 5.5 13.75V30.25C5.5 34.8063 9.19365 38.5 13.75 38.5H30.25C34.8063 38.5 38.5 34.8063 38.5 30.25V13.75C38.5 9.19365 34.8063 5.5 30.25 5.5Z" stroke="#F0F0F1" stroke-width="2.09524" stroke-linecap="round" stroke-linejoin="round"/>
<path d="M30.9375 15.8125C32.4563 15.8125 33.6875 14.5813 33.6875 13.0625C33.6875 11.5437 32.4563 10.3125 30.9375 10.3125C29.4187 10.3125 28.1875 11.5437 28.1875 13.0625C28.1875 14.5813 29.4187 15.8125 30.9375 15.8125Z" fill="#F0F0F1"/>
</svg>
