<svg width="44" height="44" viewBox="0 0 44 44" fill="none" xmlns="http://www.w3.org/2000/svg">
<path d="M36.4375 6.1875H7.5625C6.80311 6.1875 6.1875 6.80311 6.1875 7.5625V36.4375C6.1875 37.1969 6.80311 37.8125 7.5625 37.8125H36.4375C37.1969 37.8125 37.8125 37.1969 37.8125 36.4375V7.5625C37.8125 6.80311 37.1969 6.1875 36.4375 6.1875Z" stroke="#F0F0F1" stroke-width="2.09524" stroke-linecap="round" stroke-linejoin="round"/>
<path d="M21.3125 20.625V30.25" stroke="#F0F0F1" stroke-width="2.09524" stroke-linecap="round" stroke-linejoin="round"/>
<path d="M14.4375 20.625V30.25" stroke="#F0F0F1" stroke-width="2.09524" stroke-linecap="round" stroke-linejoin="round"/>
<path d="M21.3125 25.4375C21.3125 24.1611 21.8195 22.9371 22.722 22.0345C23.6246 21.132 24.8486 20.625 26.125 20.625C27.4014 20.625 28.6254 21.132 29.528 22.0345C30.4305 22.9371 30.9375 24.1611 30.9375 25.4375V30.25" stroke="#F0F0F1" stroke-width="2.09524" stroke-linecap="round" stroke-linejoin="round"/>
<path d="M14.4375 16.5C15.9563 16.5 17.1875 15.2688 17.1875 13.75C17.1875 12.2312 15.9563 11 14.4375 11C12.9187 11 11.6875 12.2312 11.6875 13.75C11.6875 15.2688 12.9187 16.5 14.4375 16.5Z" fill="#F0F0F1"/>
</svg>
